<?xml version="1.0" encoding="utf-8"?>
<!-- Generator: Adobe Illustrator 22.0.1, SVG Export Plug-In . SVG Version: 6.00 Build 0)  -->
<svg version="1.1" id="Layer_1" xmlns="http://www.w3.org/2000/svg" xmlns:xlink="http://www.w3.org/1999/xlink" x="0px" y="0px"
	 viewBox="0 0 154.4 37.5" style="enable-background:new 0 0 154.4 37.5;" xml:space="preserve">
<metadata><?xpacket begin="﻿" id="W5M0MpCehiHzreSzNTczkc9d"?>
<x:xmpmeta xmlns:x="adobe:ns:meta/" x:xmptk="Adobe XMP Core 5.6-c143 79.161210, 2017/08/11-10:28:36        ">
   <rdf:RDF xmlns:rdf="http://www.w3.org/1999/02/22-rdf-syntax-ns#">
      <rdf:Description rdf:about=""/>
   </rdf:RDF>
</x:xmpmeta>
                                                                                                    
                                                                                                    
                                                                                                    
                                                                                                    
                                                                                                    
                                                                                                    
                                                                                                    
                                                                                                    
                                                                                                    
                                                                                                    
                                                                                                    
                                                                                                    
                                                                                                    
                                                                                                    
                                                                                                    
                                                                                                    
                                                                                                    
                                                                                                    
                                                                                                    
                                                                                                    
                           
<?xpacket end="w"?></metadata>
<style type="text/css">
	.st0{fill:#312782;}
	.st1{fill:#868686;}
</style>
<g>
	<g>
		<polygon class="st0" points="12.1,8.5 14.5,9.6 11.8,3.1 		"/>
		<path class="st0" d="M12,11.7c0.7-0.7,1.5-1.2,2.3-1.6L6.7,6.5L12,11.7z"/>
		<polygon class="st0" points="15,9.5 15.9,6.9 12.3,2.9 		"/>
		<path class="st0" d="M15.8,12C15.8,12,15.8,12,15.8,12c0.5-0.2,1.1-0.4,1.7-0.4l-2.3-1.1l-0.8,2.4C14.8,12.5,15.2,12.3,15.8,12
			C15.8,12,15.8,12,15.8,12z"/>
		<path class="st0" d="M18.2,1.7l-2.8,7.9c0.9-0.3,1.8-0.5,2.8-0.5V1.7z"/>
		<path class="st0" d="M10,14.4c0.4-0.9,1-1.6,1.6-2.3L6.4,6.8L10,14.4z"/>
		<path class="st0" d="M1.6,18.4H9c0-1,0.2-1.9,0.5-2.8L3,17.9L1.6,18.4z"/>
		<path class="st0" d="M11.4,18.7c0,0,0-0.1,0-0.1c0,0,0,0,0,0l-1.3-2.8c-0.3,0.9-0.5,1.9-0.5,2.8c0,0.1,0,0.1-0.1,0.1
			c0,1,0.2,1.9,0.5,2.8L11.4,18.7z"/>
		<polygon class="st0" points="9.5,14.6 8.4,12.2 3,11.9 		"/>
		<path class="st0" d="M11.5,19.6L10.4,22l2.5,0.9C12.2,21.9,11.7,20.8,11.5,19.6z"/>
		<polygon class="st0" points="6.8,16 9.4,15.1 2.8,12.4 		"/>
		<path class="st0" d="M1.6,17.8l4.7-1.6l-4.4-4c-0.7,1.9-1.1,3.9-1.2,6L1.6,17.8z"/>
		<path class="st0" d="M11.3,2.3c-1.9,0.8-3.6,2-5.1,3.4l5.4,2.6L11.3,2.3z"/>
		<polygon class="st0" points="9.5,22.6 3,25.3 8.4,25 		"/>
		<path class="st0" d="M2.2,25.8c0.8,1.9,2,3.5,3.4,5l2.5-5.3L2.2,25.8z"/>
		<path class="st0" d="M10.4,15.2l1.1,2.3c0.1-0.6,0.2-1.1,0.5-1.7c0,0,0,0,0,0c0,0,0,0,0,0c0.2-0.5,0.5-1,0.8-1.4L10.4,15.2z"/>
		<path class="st0" d="M12.3,16.3c-0.3,0.7-0.4,1.5-0.4,2.3c0,0.8,0.2,1.6,0.4,2.3l2.4-1c-0.1-0.4-0.2-0.7-0.2-1.1
			c0-0.5,0.1-1,0.3-1.4L12.3,16.3z"/>
		<path class="st0" d="M13.5,13.5l1.1-3c-1.8,0.9-3.3,2.3-4.2,4.2l3-1.1C13.5,13.6,13.5,13.6,13.5,13.5z"/>
		<polygon class="st0" points="2.8,24.8 9.4,22.1 6.8,21.2 		"/>
		<path class="st0" d="M9.1,18.9H1.6l8,2.8C9.3,20.8,9.1,19.8,9.1,18.9z"/>
		<path class="st0" d="M12.2,35.2c1.8,0.7,3.8,1.1,5.8,1.1l-1.9-5.5L12.2,35.2z"/>
		<polygon class="st0" points="15,27.7 12.3,34.3 15.9,30.3 		"/>
		<polygon class="st0" points="12.1,28.7 11.8,34.1 14.5,27.6 		"/>
		<path class="st0" d="M18.2,28c-1,0-1.9-0.2-2.8-0.5l2.8,8V28z"/>
		<path class="st0" d="M11.7,25c-0.7-0.7-1.2-1.5-1.6-2.3l-3.7,7.6L11.7,25C11.7,25.1,11.7,25,11.7,25z"/>
		<path class="st0" d="M12,25.4l-5.3,5.3l7.7-3.7C13.6,26.6,12.7,26.1,12,25.4z"/>
		<path class="st0" d="M15.1,18.8c0,1.9,1.4,3.4,3.2,3.5v-7C16.5,15.4,15.1,16.9,15.1,18.8z"/>
		<path class="st0" d="M6.3,31.5c1.5,1.4,3.1,2.5,5,3.3l0.3-5.8L6.3,31.5z"/>
		<path class="st0" d="M0.7,19.1c0.1,2.1,0.5,4.1,1.2,5.9L6.3,21L0.7,19.1z"/>
		<path class="st0" d="M18.4,25.7L15.7,27c0.8,0.3,1.7,0.4,2.7,0.4V25.7z"/>
		<path class="st0" d="M16.2,24.7c0.7,0.2,1.4,0.4,2.1,0.4v-2.3c-0.4,0-0.8-0.1-1.2-0.3L16.2,24.7z"/>
		<path class="st0" d="M18.1,0.7c-2.1,0-4.1,0.5-6,1.2l4,4.5L18.1,0.7z"/>
		<path class="st0" d="M15.8,21.6l-1.7,1.7c0.1,0.1,0.1,0.1,0.2,0.2c0,0,0,0,0,0c0.5,0.4,1,0.7,1.5,0.9l0.9-2.2
			C16.4,22.1,16.1,21.9,15.8,21.6z"/>
		<path class="st0" d="M12.5,21.3c0.3,0.6,0.7,1.2,1.2,1.7l1.8-1.8c-0.2-0.3-0.4-0.6-0.5-0.9L12.5,21.3z"/>
		<path class="st0" d="M13.7,14.1c-0.5,0.5-0.9,1.1-1.1,1.7l2.6,1.1c0.2-0.3,0.3-0.6,0.6-0.8L13.7,14.1z"/>
		<path class="st0" d="M8.1,11.7L5.6,6.3C4.2,7.8,3,9.5,2.2,11.4L8.1,11.7z"/>
		<path class="st0" d="M15.1,26.7l2.4-1.1c-0.6-0.1-1.2-0.2-1.7-0.5c0,0,0,0,0,0c0,0,0,0,0,0c-0.4-0.2-0.9-0.4-1.3-0.7
			c0,0,0,0-0.1,0c-0.1-0.1-0.2-0.1-0.2-0.1l0.8,2.2L15.1,26.7z"/>
		<path class="st0" d="M16.8,15.2l-1.1-2.6c-0.6,0.3-1.2,0.7-1.7,1.2l2,2C16.3,15.5,16.5,15.4,16.8,15.2z"/>
		<path class="st0" d="M14.6,26.5l0-0.1l-1-2.8l-3-1.1c0.4,0.9,1,1.7,1.7,2.3C12.9,25.6,13.7,26.1,14.6,26.5z"/>
		<path class="st0" d="M15.6,10.1l2.8,1.3V9.7C17.4,9.7,16.4,9.8,15.6,10.1z"/>
		<path class="st0" d="M18.4,14.8V12l0,0c-0.7,0-1.5,0.2-2.1,0.4l1.1,2.6C17.6,14.9,18,14.8,18.4,14.8z"/>
	</g>
	<g>
		<path class="st0" d="M25.7,17.5v-0.6c0.2-0.1,0.5-0.2,0.9-0.5c0.2-0.1,0.3-0.2,0.3-0.2c0,0,0.1-0.1,0.1-0.1c0-0.2,0.1-0.9,0.1-2.2
			c0-1.2,0-2.7,0-4.4c0-2.5,0-4.1,0-4.7c0-1.5-0.1-2.4-0.2-2.6c0-0.1-0.1-0.2-0.2-0.2c-0.2-0.1-0.8-0.2-1.8-0.2V0.6
			c1,0,2.2,0.1,3.5,0.1c1.5,0,2.9,0,4.2-0.1v1.1c-0.9,0-1.5,0.1-1.7,0.2c-0.1,0-0.2,0.1-0.2,0.2c0,0.1-0.1,0.6-0.1,1.5
			c0,0.9-0.1,2-0.1,3.4c0,0.1,0,1.3,0,3.5c0,1.2,0,2.3,0,3.4c0,1.1,0,1.8,0,2.1c1.1,0,1.9,0.1,2.3,0.1c1.2,0,2.3-0.1,3.2-0.2
			c0.3,0,0.5-0.1,0.6-0.2c0.1-0.1,0.1-0.2,0.2-0.4c0.2-0.6,0.3-1.3,0.5-2.1h1c0,0.2,0,0.4,0,0.4L38,15.9c-0.1,0.8-0.1,1.2-0.1,1.4
			c-0.2,0.1-0.5,0.1-0.7,0.1c-0.5,0-1.3,0.1-2.3,0.1c-0.1,0-1.1,0-2.8-0.1c-1.3,0-2.3,0-2.8,0C28.5,17.4,27.3,17.4,25.7,17.5z"/>
		<path class="st0" d="M50.9,16.6v0.9c-0.9,0-1.7-0.1-2.5-0.1c-0.7,0-1.3,0-2,0.1l-0.1-0.1l0.1-1.6c-0.3,0.2-1.1,0.8-2.6,1.9
			c-0.4,0.1-0.7,0.1-1,0.1c-0.9,0-1.6-0.3-2.1-0.8c-0.5-0.5-0.7-1.3-0.7-2.2c0-0.7,0.1-1.2,0.3-1.6c0.2-0.4,0.5-0.7,0.7-0.9
			c0.3-0.2,0.6-0.4,1.2-0.6c1.3-0.5,2.7-0.8,4.2-1.1c0-1-0.2-1.7-0.6-2.2C45.5,8,44.8,7.7,44,7.7c-0.3,0-0.7,0-1,0.1
			c-0.1,0-0.3,0.1-0.5,0.2L42,9.3l-0.8-0.2l0.1-1.6c0.6-0.4,1.2-0.8,1.7-1C43.5,6.2,43.9,6,44.1,6c0.3-0.1,0.7-0.1,1.3-0.1
			c0.9,0,1.6,0.1,2.2,0.4c0.6,0.3,1,0.6,1.3,0.9c0.3,0.3,0.5,0.7,0.6,1.1c0.1,0.4,0.2,0.9,0.2,1.5c0,0.3,0,0.9-0.1,2
			c0,0.7,0,1.3,0,1.8c0,1.4,0,2.3,0.1,2.6c0,0.1,0.1,0.2,0.2,0.3C49.8,16.5,50.2,16.5,50.9,16.6z M46.5,11.7
			c-0.7,0.1-1.3,0.3-1.9,0.5c-0.6,0.2-1,0.5-1.2,0.8c-0.2,0.3-0.3,0.7-0.3,1.1c0,0.5,0.1,0.9,0.4,1.2c0.3,0.3,0.6,0.4,1,0.4
			c0.4,0,0.7-0.1,1.1-0.3c0.4-0.2,0.7-0.5,0.9-0.8V11.7z"/>
		<path class="st0" d="M66.1,16.6v0.9c-1.1-0.1-2-0.1-2.7-0.1c-0.8,0-1.5,0-2.1,0.1l-0.2-0.2c0-0.2,0.1-0.9,0.2-2.1l0.1-2v-1
			c0-1.4-0.1-2.3-0.2-2.8C61,9,60.8,8.7,60.5,8.4C60.1,8.1,59.7,8,59.1,8c-0.6,0-1,0.1-1.4,0.4C57.4,8.7,57.1,9,57,9.2
			C57,9.4,56.9,10,57,11.2v2c0,0.6,0,1.3,0,2.2c0,0.4,0,0.6,0.1,0.7c0,0.1,0.1,0.2,0.2,0.2c0.1,0.1,0.3,0.1,0.6,0.2
			c0.1,0,0.4,0,1,0.1v0.9c-0.9,0-2,0-3.2,0c-1.5,0-2.6,0-3.4,0v-0.9c0.6,0,1.1,0,1.3-0.1c0.1,0,0.2-0.1,0.3-0.2
			c0.1-0.2,0.1-0.4,0.1-0.9l0-1.1c0-0.2,0-0.6,0-1.1v-1.6c0-0.7,0-1.6-0.1-2.6c0-0.5-0.1-0.8-0.1-0.9c0-0.1-0.1-0.1-0.2-0.2
			c-0.2-0.1-0.6-0.1-1.4-0.1V6.9c1.5-0.2,2.4-0.4,2.9-0.6c0.5-0.1,1-0.3,1.6-0.6L57,5.9v1.9l2.2-1.8c0.3-0.1,0.5-0.2,0.7-0.2
			c0.2,0,0.4-0.1,0.8-0.1c0.9,0,1.5,0.1,1.9,0.3c0.4,0.2,0.8,0.5,1.1,0.8c0.3,0.4,0.5,0.7,0.6,1.1c0.1,0.4,0.2,1,0.2,1.8
			c0,0.9,0,1.5,0,1.7c0,0.1,0,0.2,0,0.3l0,1.2c0,1.4,0,2.2,0.1,2.5c0,0.3,0.1,0.5,0.2,0.6c0.1,0.1,0.3,0.2,0.7,0.2
			C65.5,16.5,65.7,16.5,66.1,16.6z"/>
		<path class="st0" d="M67.9,13.7h1c0,0.9,0.1,1.5,0.1,1.7c0.4,0.4,0.8,0.8,1.2,1c0.4,0.2,0.9,0.3,1.5,0.3c0.8,0,1.3-0.2,1.7-0.5
			c0.4-0.4,0.6-0.8,0.6-1.3c0-0.3-0.1-0.6-0.2-0.8c-0.1-0.2-0.4-0.4-0.8-0.6c-0.3-0.1-0.9-0.3-1.8-0.5c-0.9-0.2-1.6-0.4-2-0.6
			c-0.5-0.2-0.8-0.6-1.1-1c-0.3-0.5-0.4-1-0.4-1.6c0-1.1,0.4-2,1.3-2.8c0.8-0.7,2-1.1,3.6-1.1c0.7,0,1.3,0.1,1.8,0.2
			c0.5,0.1,1,0.3,1.5,0.5l0,0.1c0,0.3-0.1,0.6-0.1,0.9c0,0.3-0.1,1-0.1,2.1l-0.9,0c0-0.1,0-0.2,0-0.4c0-0.4-0.1-0.7-0.1-1
			c-0.2-0.3-0.6-0.6-0.9-0.7C73.3,7.1,72.8,7,72.3,7c-0.7,0-1.2,0.2-1.6,0.5c-0.4,0.3-0.6,0.7-0.6,1.1c0,0.4,0.1,0.8,0.3,1
			c0.2,0.2,0.4,0.4,0.7,0.5c0.3,0.1,0.9,0.2,1.8,0.4c0.9,0.2,1.5,0.3,1.8,0.4c0.4,0.2,0.8,0.4,1.1,0.6c0.3,0.3,0.5,0.6,0.6,1
			c0.1,0.4,0.2,0.8,0.2,1.3c0,1.2-0.5,2.2-1.4,3c-0.9,0.8-2.2,1.2-3.9,1.2c-0.6,0-1.1-0.1-1.6-0.2c-0.5-0.1-1.2-0.3-1.9-0.5L67.7,17
			c0.1-0.6,0.1-1.1,0.1-1.3L67.9,13.7z"/>
		<path class="st0" d="M92,16.6v0.9l-2.5,0l-2.2,0l-0.1-0.1l0.1-1l0-1c-0.6,0.5-1.2,1-1.8,1.6c-0.3,0.2-0.5,0.4-0.8,0.6
			c-0.3,0.1-0.7,0.2-1.2,0.2c-1.3,0-2.4-0.5-3.3-1.5c-0.9-1-1.3-2.3-1.3-4c0-0.9,0.1-1.8,0.4-2.5c0.2-0.6,0.4-1,0.7-1.3
			c0.2-0.2,0.7-0.7,1.6-1.3s1.5-1,1.9-1.2c0.4-0.1,0.9-0.2,1.5-0.2c0.4,0,0.7,0,1,0.1c0.3,0.1,0.7,0.2,1.3,0.4c0-0.5,0-1,0-1.5
			c0-0.6,0-1.4-0.1-2.2c0-0.4-0.1-0.7-0.1-0.8C87,1.8,87,1.8,86.9,1.7c-0.1,0-0.6,0-1.5-0.1V0.8c1.7-0.2,3.3-0.5,4.8-1l0.3,0.2
			c-0.1,2.2-0.1,3.4-0.2,3.8c0,2.1,0,5,0,8.8v1.1c0,0.5,0,1.1,0.1,1.8c0,0.5,0.1,0.7,0.1,0.8c0.1,0.1,0.1,0.2,0.3,0.2
			C90.8,16.5,91.3,16.6,92,16.6z M87.3,8.9c-0.4-0.5-0.8-0.9-1.1-1c-0.5-0.3-1.1-0.5-1.7-0.5c-0.6,0-1,0.1-1.4,0.4
			c-0.4,0.3-0.6,0.7-0.8,1.3S82,10.4,82,11.2c0,1.5,0.3,2.6,0.9,3.4c0.5,0.6,1.1,0.9,1.9,0.9c0.6,0,1.1-0.2,1.6-0.5
			c0.4-0.3,0.7-0.7,0.8-1c0.1-0.3,0.1-1.3,0.1-2.9L87.3,8.9z"/>
		<path class="st0" d="M93.7,11.8c0-1.4,0.2-2.5,0.7-3.4c0.5-0.9,1.2-1.6,2.1-2c0.9-0.5,2-0.7,3.3-0.7c1.9,0,3.3,0.5,4.2,1.5
			c1,1,1.5,2.4,1.5,4.3c0,1.1-0.1,2-0.4,2.8c-0.3,0.8-0.7,1.4-1.1,1.9c-0.5,0.5-1,0.9-1.5,1.1c-0.9,0.4-1.9,0.6-3,0.6
			c-1.8,0-3.2-0.5-4.2-1.6C94.2,15.3,93.7,13.8,93.7,11.8z M97,11.2c0,2.1,0.3,3.7,0.9,4.6c0.4,0.6,1,0.9,1.8,0.9
			c0.7,0,1.2-0.2,1.6-0.7c0.5-0.6,0.8-1.8,0.8-3.5c0-1.2-0.1-2.3-0.3-3.2c-0.2-0.9-0.5-1.5-0.9-1.8c-0.4-0.3-0.9-0.5-1.4-0.5
			c-0.5,0-0.9,0.1-1.3,0.4c-0.4,0.3-0.6,0.7-0.8,1.3C97.1,9.2,97,10.1,97,11.2z"/>
		<path class="st0" d="M111.2,17.6c0-0.1-0.1-0.4-0.2-0.9c-0.1-0.3-0.2-0.7-0.3-1.1l-1-3.6c-0.4-1.5-0.7-2.5-0.8-2.9
			c-0.3-1-0.5-1.5-0.6-1.7c0-0.1-0.1-0.1-0.2-0.2c-0.2-0.1-0.6-0.1-1.3-0.1v-1c1,0,2.1,0,3.3,0c1.2,0,2.3,0,3.4,0v1
			c-0.9,0-1.4,0-1.5,0.1c-0.1,0.1-0.2,0.2-0.2,0.3c0,0.2,0,0.4,0.1,0.7l1.5,5.5l2.1-4.6l0.7-1.6l0.7-1.7h1.2l3.4,7.9l1.2-3.5
			c0.2-0.6,0.4-1.2,0.5-1.9c0.1-0.4,0.1-0.6,0.1-0.7c0-0.2-0.1-0.3-0.2-0.4c-0.1-0.1-0.6-0.1-1.5-0.1v-1c0.9,0,1.7,0,2.4,0
			c0.7,0,1.6,0,2.6,0v1c-0.6,0-0.9,0.1-0.9,0.1c-0.1,0-0.2,0.1-0.3,0.2c-0.1,0.1-0.2,0.2-0.2,0.3c-0.1,0.1-0.3,0.6-0.6,1.6
			c-0.1,0.4-0.4,1-0.7,2l-0.6,1.9l-0.2,0.5c-0.1,0.3-0.4,1.1-0.8,2.4l-0.5,1.6h-2c-0.8-1.8-1.2-2.9-1.3-3.2l-1.9-4.4
			c-0.7,1.4-1.2,2.5-1.6,3.3c-0.3,0.8-0.6,1.4-0.9,2l-0.9,2.3H111.2z"/>
		<path class="st0" d="M141.6,16.6v0.9c-1.1-0.1-2-0.1-2.7-0.1c-0.8,0-1.5,0-2.1,0.1l-0.2-0.2c0-0.2,0.1-0.9,0.2-2.1l0.1-2v-1
			c0-1.4-0.1-2.3-0.2-2.8c-0.1-0.4-0.3-0.8-0.7-1.1c-0.3-0.3-0.8-0.4-1.4-0.4s-1,0.1-1.4,0.4c-0.4,0.3-0.6,0.5-0.7,0.8
			c-0.1,0.2-0.1,0.8-0.1,1.9v2c0,0.6,0,1.3,0,2.2c0,0.4,0,0.6,0.1,0.7c0,0.1,0.1,0.2,0.2,0.2c0.1,0.1,0.3,0.1,0.6,0.2
			c0.1,0,0.4,0,1,0.1v0.9c-0.9,0-2,0-3.2,0c-1.5,0-2.6,0-3.4,0v-0.9c0.6,0,1.1,0,1.3-0.1c0.1,0,0.2-0.1,0.3-0.2
			c0.1-0.2,0.1-0.4,0.1-0.9l0-1.1c0-0.2,0-0.6,0-1.1v-1.6c0-0.7,0-1.6-0.1-2.6c0-0.5-0.1-0.8-0.1-0.9c0-0.1-0.1-0.1-0.2-0.2
			c-0.2-0.1-0.6-0.1-1.4-0.1V6.9c1.5-0.2,2.4-0.4,2.9-0.6c0.5-0.1,1-0.3,1.6-0.6l0.3,0.1v1.9l2.2-1.8c0.3-0.1,0.5-0.2,0.7-0.2
			c0.2,0,0.4-0.1,0.8-0.1c0.9,0,1.5,0.1,1.9,0.3c0.4,0.2,0.8,0.5,1.1,0.8c0.3,0.4,0.5,0.7,0.6,1.1c0.1,0.4,0.2,1,0.2,1.8
			c0,0.9,0,1.5,0,1.7c0,0.1,0,0.2,0,0.3l0,1.2c0,1.4,0,2.2,0.1,2.5c0,0.3,0.1,0.5,0.2,0.6c0.1,0.1,0.3,0.2,0.7,0.2
			C141,16.5,141.2,16.5,141.6,16.6z"/>
		<path class="st0" d="M153.3,15.6l-0.5,1.2c-0.7,0.4-1.3,0.7-2,0.9c-0.5,0.1-1.1,0.2-1.8,0.2c-0.8,0-1.5-0.1-2.1-0.3
			c-0.6-0.2-1.1-0.4-1.6-0.8c-0.4-0.3-0.8-0.7-1.1-1.2c-0.3-0.5-0.6-1-0.7-1.6c-0.1-0.6-0.2-1.3-0.2-2c0-1.1,0.1-2,0.4-2.8
			c0.2-0.6,0.4-1,0.7-1.3c0.2-0.2,0.6-0.5,1.3-0.9c0.7-0.4,1.2-0.7,1.5-0.9c0.6-0.2,1.2-0.4,2-0.4c1.1,0,2,0.2,2.7,0.7
			c0.7,0.5,1.2,1,1.5,1.7s0.4,1.5,0.4,2.5c0,0.2,0,0.4,0,0.7c-0.2,0.1-0.5,0.1-0.9,0.2c-0.5,0.1-0.9,0.2-1.1,0.2
			c-0.6,0-1.4,0.1-2.4,0.1c-1,0-1.5,0-1.6,0c-0.1,0-0.2,0-0.3,0h-0.8c0.1,1.3,0.5,2.3,1.2,3c0.7,0.7,1.6,1.1,2.7,1.1
			c0.5,0,0.9-0.1,1.3-0.2c0.4-0.1,0.9-0.3,1.5-0.6L153.3,15.6z M150.4,10.6c0-1.3-0.1-2.2-0.5-2.7c-0.4-0.5-0.9-0.8-1.5-0.8
			c-0.6,0-1.1,0.3-1.6,0.8c-0.4,0.5-0.6,1.4-0.6,2.7c0.5,0.1,1.3,0.1,2.4,0.1C149.3,10.7,149.9,10.7,150.4,10.6z"/>
	</g>
	<g>
		<path class="st1" d="M32.1,34.6l-0.3,0.7c-0.4,0.3-0.7,0.4-0.9,0.5c-0.3,0.1-0.6,0.2-1,0.3c-0.4,0.1-0.8,0.1-1.2,0.1
			c-0.8,0-1.5-0.2-2.2-0.5c-0.6-0.3-1.2-0.8-1.5-1.5c-0.4-0.7-0.5-1.4-0.5-2.3c0-0.7,0.1-1.3,0.3-1.9c0.2-0.6,0.4-1,0.7-1.2
			c0.2-0.2,0.4-0.4,0.8-0.7c0.4-0.3,0.7-0.5,1.1-0.6c0.5-0.2,1-0.3,1.6-0.3c0.7,0,1.3,0.2,1.8,0.5c0.5,0.3,1,0.7,1.2,1.3
			c0.3,0.5,0.4,1.1,0.4,1.8c0,0.2,0,0.4,0,0.6c-0.4,0.1-0.8,0.1-1.2,0.2c-0.7,0-1.3,0.1-2,0.1h-2.9c0,0.9,0.2,1.6,0.5,2.1
			c0.3,0.5,0.7,0.9,1.2,1.2c0.5,0.3,1,0.4,1.6,0.4c0.4,0,0.7-0.1,1.1-0.2c0.4-0.1,0.8-0.3,1.4-0.7L32.1,34.6z M26.2,30.9
			c0.2,0,0.5,0,1,0.1c0.9,0,1.5,0,1.9,0c0.8,0,1.3,0,1.6,0c0-0.1,0-0.3,0-0.3c0-1-0.2-1.7-0.6-2.1c-0.4-0.4-0.9-0.7-1.6-0.7
			c-0.7,0-1.2,0.2-1.7,0.7C26.4,29.1,26.2,29.8,26.2,30.9z"/>
		<path class="st1" d="M33,36v-0.5c0.3,0,0.5,0,0.7-0.1c0.2-0.1,0.5-0.4,0.9-0.8l2.1-2.6l-0.8-1.1c-0.4-0.6-0.8-1.2-1.2-1.7
			c-0.4-0.5-0.7-0.8-1-1c-0.1-0.1-0.2-0.1-0.3-0.1c-0.1,0-0.2,0-0.3,0L33,27.6c0.7-0.1,1.4-0.2,2.1-0.4c0.2,0.2,0.4,0.4,0.6,0.7
			c0.3,0.4,0.7,1,1.2,1.8l0.7,1.1l0.6-0.7c0.4-0.6,1.1-1.4,1.9-2.6c0.3,0,0.6,0,0.7,0c0.1,0,0.4,0,0.7,0v0.5c-0.3,0-0.5,0.1-0.6,0.1
			c-0.3,0.2-0.7,0.7-1.4,1.5l-0.9,1l-0.6,0.7l0.3,0.5c0.1,0.2,0.5,0.8,1.2,1.6c0.6,0.9,1.1,1.5,1.3,1.7c0.1,0.1,0.2,0.2,0.3,0.3
			c0.1,0,0.3,0.1,0.5,0.1V36c-0.4,0-0.8,0-1.1,0c-0.4,0-0.7,0-1.1,0c-0.4-0.5-0.7-1-1-1.4l-1.4-2.1c-0.7,0.8-1.5,1.9-2.5,3.5
			c-0.2,0-0.5,0-0.8,0C33.5,36,33.2,36,33,36z"/>
		<path class="st1" d="M50,34.6l-0.3,0.7c-0.4,0.3-0.7,0.4-0.9,0.5c-0.3,0.1-0.6,0.2-1,0.3c-0.4,0.1-0.8,0.1-1.2,0.1
			c-0.8,0-1.5-0.2-2.2-0.5c-0.6-0.3-1.2-0.8-1.5-1.5c-0.4-0.7-0.5-1.4-0.5-2.3c0-0.7,0.1-1.3,0.3-1.9c0.2-0.6,0.4-1,0.7-1.2
			c0.2-0.2,0.4-0.4,0.8-0.7c0.4-0.3,0.7-0.5,1.1-0.6c0.5-0.2,1-0.3,1.6-0.3c0.7,0,1.3,0.2,1.8,0.5c0.5,0.3,1,0.7,1.2,1.3
			c0.3,0.5,0.4,1.1,0.4,1.8c0,0.2,0,0.4,0,0.6c-0.4,0.1-0.8,0.1-1.2,0.2c-0.7,0-1.3,0.1-2,0.1h-2.9c0,0.9,0.2,1.6,0.5,2.1
			c0.3,0.5,0.7,0.9,1.2,1.2c0.5,0.3,1,0.4,1.6,0.4c0.4,0,0.7-0.1,1.1-0.2c0.4-0.1,0.8-0.3,1.4-0.7L50,34.6z M44.2,30.9
			c0.2,0,0.5,0,1,0.1c0.9,0,1.5,0,1.9,0c0.8,0,1.3,0,1.6,0c0-0.1,0-0.3,0-0.3c0-1-0.2-1.7-0.6-2.1c-0.4-0.4-0.9-0.7-1.6-0.7
			c-0.7,0-1.2,0.2-1.7,0.7C44.4,29.1,44.2,29.8,44.2,30.9z"/>
		<path class="st1" d="M58.5,35l-0.4,0.6c-0.4,0.2-0.8,0.4-1.2,0.5s-0.9,0.2-1.4,0.2c-1.3,0-2.3-0.4-3-1.2c-0.8-0.8-1.1-1.8-1.1-3.2
			c0-0.7,0.1-1.3,0.3-1.9c0.2-0.5,0.5-0.9,0.8-1.2c0.2-0.2,0.6-0.5,1.1-0.8c0.6-0.3,1-0.5,1.2-0.6c0.4-0.2,0.9-0.3,1.5-0.3
			c0.5,0,1,0.1,1.5,0.2c0.3,0.1,0.6,0.2,0.8,0.4c-0.1,0.5-0.1,0.8-0.2,1.1c0,0.2-0.1,0.7-0.1,1.3h-0.5c0-0.6-0.1-1-0.1-1.1
			c0-0.1-0.1-0.2-0.2-0.2c-0.2-0.2-0.5-0.3-0.8-0.4c-0.3-0.1-0.7-0.2-1.1-0.2c-0.5,0-1,0.1-1.3,0.3c-0.4,0.2-0.7,0.5-0.9,1
			c-0.2,0.5-0.3,1-0.3,1.7c0,0.8,0.1,1.6,0.4,2.2c0.3,0.7,0.7,1.2,1.2,1.5c0.5,0.3,1.1,0.5,1.7,0.5c0.3,0,0.6,0,0.9-0.1
			c0.3-0.1,0.7-0.2,1.1-0.4L58.5,35z"/>
		<path class="st1" d="M69.3,35.5V36c-0.8,0-1.4-0.1-1.8-0.1c-0.4,0-0.9,0-1.4,0.1c0-0.5,0.1-1,0.1-1.7c-0.4,0.3-0.8,0.7-1.3,1.2
			c-0.1,0.1-0.2,0.2-0.3,0.3c-0.3,0.1-0.5,0.3-0.8,0.3c-0.3,0.1-0.6,0.1-0.9,0.1c-0.5,0-0.9-0.1-1.2-0.2c-0.3-0.1-0.6-0.3-0.9-0.6
			c-0.2-0.2-0.3-0.5-0.4-0.8c-0.1-0.3-0.1-0.7-0.1-1.2c0-0.2,0-0.4,0-0.6c0-0.2,0-0.4,0-0.6v-1.6c0-0.2,0-0.6,0-1.2
			c0-0.4,0-0.7-0.1-0.8c0-0.1-0.1-0.1-0.1-0.1c-0.1-0.1-0.3-0.1-0.5-0.1c-0.3,0-0.6,0-0.8,0V28c1.3-0.1,2.3-0.4,2.8-0.7
			c0.1-0.1,0.2-0.1,0.2-0.1c0,0,0.1,0,0.1,0c0,0,0,0.1,0,0.1c0,0,0,0.1,0,0.2c0,0.2,0,0.6-0.1,1.1c0,1-0.1,1.7-0.1,2v1.8
			c0,0.7,0.1,1.3,0.2,1.6c0.1,0.3,0.3,0.5,0.6,0.7c0.3,0.2,0.6,0.3,1.1,0.3c0.3,0,0.6-0.1,0.9-0.2c0.3-0.1,0.5-0.2,0.8-0.4
			c0.2-0.1,0.3-0.3,0.5-0.6c0.1-0.2,0.2-0.3,0.3-0.4c0-0.1,0.1-0.2,0.1-0.4c0-0.5,0-1.1,0-1.6v-0.8c0-0.2,0-0.6,0-1.2
			c0-0.4,0-0.7-0.1-0.8c0-0.1-0.1-0.1-0.1-0.1c-0.1-0.1-0.3-0.1-0.5-0.1c-0.3,0-0.6,0-0.8,0V28c1.3-0.1,2.3-0.4,2.8-0.7
			c0.1-0.1,0.2-0.1,0.2-0.1c0,0,0.1,0,0.1,0c0,0,0,0.1,0,0.1c0,0,0,0.1,0,0.2c0,0.2,0,0.6-0.1,1.2c0,1-0.1,1.7-0.1,2V32l0,1.3
			c0,0.7,0,1.2,0,1.3c0,0.3,0,0.5,0.1,0.7c0,0.1,0.1,0.1,0.1,0.1c0,0,0.1,0.1,0.2,0.1C68.4,35.5,68.7,35.5,69.3,35.5z"/>
		<path class="st1" d="M69.9,28.9v-0.4c0.6-0.2,1.1-0.4,1.4-0.6c0-1.4,0-2.4-0.1-2.8c0.6-0.2,1.1-0.5,1.5-0.7l0.2,0.2
			c-0.1,0.5-0.1,1.6-0.2,3.3c0.5,0,0.8,0,0.9,0c0.1,0,0.4,0,0.9,0c0.3,0,0.6,0,0.7,0l0.1,0.1l-0.2,0.8c-0.4,0-0.7,0-1.1,0
			s-0.8,0-1.3,0l-0.1,3.7c0,0.9,0,1.4,0,1.6c0,0.2,0.1,0.3,0.2,0.5c0.1,0.1,0.2,0.2,0.3,0.3c0.1,0.1,0.4,0.1,0.7,0.2
			c0.2,0,0.5,0,0.6,0c0.2,0,0.4-0.1,0.6-0.2l0.1,0.4c-0.3,0.2-0.6,0.5-0.8,0.7c-0.2,0.1-0.4,0.1-0.6,0.2c-0.2,0-0.4,0-0.7,0
			c-0.3,0-0.6,0-0.8-0.1c-0.2-0.1-0.4-0.2-0.5-0.3c-0.2-0.1-0.3-0.3-0.4-0.5c-0.1-0.2-0.2-0.5-0.2-0.9c0-0.4,0-0.9,0-1.4
			c0-0.1,0-0.2,0-0.3v-3.8h-0.4C70.6,28.9,70.3,28.9,69.9,28.9z"/>
		<path class="st1" d="M75.7,28.6V28c1.2-0.1,2.2-0.4,3-0.8l0.2,0.1c0,1.3-0.1,2.3-0.1,3V32c0,1.6,0,2.4,0.1,2.6
			c0,0.3,0,0.5,0.1,0.7c0,0.1,0.1,0.1,0.1,0.1c0,0,0.1,0.1,0.2,0.1c0,0,0.4,0,1,0V36c-0.9,0-1.7-0.1-2.2-0.1c-0.5,0-1.3,0-2.4,0.1
			v-0.5l0.9,0c0.1,0,0.2,0,0.3-0.1c0.1,0,0.1-0.1,0.2-0.2c0.1-0.1,0.1-0.3,0.1-0.6c0-0.1,0-0.9,0.1-2.6v-1.6c0-0.9,0-1.4-0.1-1.6
			c0-0.1-0.1-0.2-0.2-0.2C76.8,28.6,76.4,28.6,75.7,28.6z M77.9,23.2c0.3,0,0.5,0.1,0.7,0.3c0.2,0.2,0.3,0.4,0.3,0.7
			c0,0.3-0.1,0.5-0.3,0.7s-0.4,0.3-0.7,0.3c-0.3,0-0.5-0.1-0.7-0.3c-0.2-0.2-0.3-0.4-0.3-0.7c0-0.3,0.1-0.5,0.3-0.7
			C77.4,23.3,77.6,23.2,77.9,23.2z"/>
		<path class="st1" d="M85.1,36.1c-0.2-0.6-0.4-1-0.5-1.2l-0.7-1.7L82,28.8c-0.1-0.3-0.2-0.5-0.3-0.5c-0.1-0.1-0.2-0.1-0.3-0.2
			c-0.1,0-0.3,0-0.7-0.1v-0.5c1,0,1.7,0.1,2.2,0.1c0.5,0,1.2,0,2.1-0.1V28c-0.7,0-1,0.1-1.2,0.1c-0.1,0.1-0.2,0.2-0.2,0.3
			c0,0.2,0.1,0.6,0.4,1.2l1.1,2.8l0.3,0.6c0.3,0.7,0.5,1.2,0.6,1.4l0.9-2.1c0.1-0.1,0.3-0.8,0.8-2c0.3-0.7,0.5-1.3,0.6-1.7
			c0-0.1,0-0.2,0-0.3c0-0.1,0-0.2-0.1-0.2c-0.1-0.1-0.5-0.1-1.2-0.1v-0.5c0.9,0,1.5,0.1,1.7,0.1c0.2,0,0.8,0,1.7-0.1V28
			c-0.4,0-0.6,0.1-0.8,0.1c-0.1,0.1-0.2,0.2-0.4,0.4c-0.1,0.1-0.4,0.8-1,2l-0.9,1.9c-0.2,0.3-0.7,1.6-1.6,3.7H85.1z"/>
		<path class="st1" d="M98.7,34.6l-0.3,0.7c-0.4,0.3-0.7,0.4-0.9,0.5c-0.3,0.1-0.6,0.2-1,0.3c-0.4,0.1-0.8,0.1-1.2,0.1
			c-0.8,0-1.5-0.2-2.2-0.5c-0.6-0.3-1.2-0.8-1.5-1.5c-0.4-0.7-0.5-1.4-0.5-2.3c0-0.7,0.1-1.3,0.3-1.9c0.2-0.6,0.4-1,0.7-1.2
			c0.2-0.2,0.4-0.4,0.8-0.7c0.4-0.3,0.7-0.5,1.1-0.6c0.5-0.2,1-0.3,1.6-0.3c0.7,0,1.3,0.2,1.8,0.5c0.5,0.3,1,0.7,1.2,1.3
			c0.3,0.5,0.4,1.1,0.4,1.8c0,0.2,0,0.4,0,0.6c-0.4,0.1-0.8,0.1-1.2,0.2c-0.7,0-1.3,0.1-2,0.1h-2.9c0,0.9,0.2,1.6,0.5,2.1
			c0.3,0.5,0.7,0.9,1.2,1.2c0.5,0.3,1,0.4,1.6,0.4c0.4,0,0.7-0.1,1.1-0.2c0.4-0.1,0.8-0.3,1.4-0.7L98.7,34.6z M92.8,30.9
			c0.2,0,0.5,0,1,0.1c0.9,0,1.5,0,1.9,0c0.8,0,1.3,0,1.6,0c0-0.1,0-0.3,0-0.3c0-1-0.2-1.7-0.6-2.1c-0.4-0.4-0.9-0.7-1.6-0.7
			c-0.7,0-1.2,0.2-1.7,0.7C93.1,29.1,92.9,29.8,92.8,30.9z"/>
		<path class="st1" d="M104.5,33.3h0.5c0,0.4,0,0.6,0.1,0.8c0,0.2,0.1,0.4,0.2,0.6c0.1,0.2,0.2,0.4,0.3,0.5c0.2,0.1,0.3,0.2,0.5,0.3
			c0.2,0.1,0.4,0.1,0.5,0.2c0.2,0,0.5,0,0.8,0c0.6,0,1.1-0.2,1.5-0.5c0.4-0.3,0.6-0.8,0.6-1.3c0-0.3-0.1-0.5-0.2-0.7
			c-0.1-0.2-0.3-0.3-0.5-0.5c-0.2-0.1-0.7-0.3-1.5-0.4c-0.8-0.2-1.3-0.3-1.5-0.4c-0.3-0.1-0.6-0.3-0.8-0.5c-0.2-0.2-0.4-0.4-0.5-0.7
			c-0.1-0.3-0.2-0.6-0.2-0.9c0-0.5,0.1-0.9,0.4-1.3c0.3-0.4,0.6-0.7,1.2-1c0.5-0.3,1.1-0.4,1.8-0.4c0.4,0,0.8,0.1,1.3,0.2
			c0.5,0.1,0.9,0.2,1.2,0.4c0,0.7-0.1,1.4-0.1,2.1h-0.5c0-0.4-0.1-0.7-0.1-0.9c0-0.1-0.1-0.3-0.2-0.4s-0.2-0.2-0.3-0.4
			c-0.2-0.1-0.4-0.2-0.6-0.3c-0.3-0.1-0.6-0.1-1-0.1c-0.5,0-1,0.2-1.3,0.5c-0.3,0.3-0.5,0.7-0.5,1.1c0,0.2,0,0.4,0.1,0.6
			c0.1,0.2,0.2,0.3,0.4,0.4c0.2,0.1,0.4,0.2,0.7,0.3l1.5,0.4c0.8,0.2,1.3,0.4,1.6,0.5c0.3,0.1,0.5,0.4,0.7,0.7
			c0.2,0.3,0.3,0.6,0.3,1.1c0,0.8-0.3,1.5-1,2.1c-0.7,0.6-1.6,0.9-2.7,0.9c-0.5,0-1.2-0.1-2.1-0.2c-0.5-0.1-0.7-0.2-0.8-0.2
			c0,0,0,0,0-0.1c0,0,0-0.1,0-0.2c0.1-0.3,0.1-0.5,0.1-0.8C104.5,34.6,104.5,34.1,104.5,33.3z"/>
		<path class="st1" d="M119.3,34.6l-0.3,0.7c-0.4,0.3-0.7,0.4-0.9,0.5c-0.3,0.1-0.6,0.2-1,0.3c-0.4,0.1-0.8,0.1-1.2,0.1
			c-0.8,0-1.5-0.2-2.2-0.5c-0.6-0.3-1.2-0.8-1.5-1.5c-0.4-0.7-0.5-1.4-0.5-2.3c0-0.7,0.1-1.3,0.3-1.9c0.2-0.6,0.4-1,0.7-1.2
			c0.2-0.2,0.4-0.4,0.8-0.7c0.4-0.3,0.7-0.5,1.1-0.6c0.5-0.2,1-0.3,1.6-0.3c0.7,0,1.3,0.2,1.8,0.5c0.5,0.3,1,0.7,1.2,1.3
			c0.3,0.5,0.4,1.1,0.4,1.8c0,0.2,0,0.4,0,0.6c-0.4,0.1-0.8,0.1-1.2,0.2c-0.7,0-1.3,0.1-2,0.1h-2.9c0,0.9,0.2,1.6,0.5,2.1
			c0.3,0.5,0.7,0.9,1.2,1.2c0.5,0.3,1,0.4,1.6,0.4c0.4,0,0.7-0.1,1.1-0.2c0.4-0.1,0.8-0.3,1.4-0.7L119.3,34.6z M113.4,30.9
			c0.2,0,0.5,0,1,0.1c0.9,0,1.5,0,1.9,0c0.8,0,1.3,0,1.6,0c0-0.1,0-0.3,0-0.3c0-1-0.2-1.7-0.6-2.1c-0.4-0.4-0.9-0.7-1.6-0.7
			c-0.7,0-1.2,0.2-1.7,0.7C113.7,29.1,113.4,29.8,113.4,30.9z"/>
		<path class="st1" d="M121.8,29.8l-0.5-0.1c0-0.1,0-0.3,0-0.6c0-0.3,0-0.5,0-0.6c0.8-0.5,1.4-0.8,1.9-1c0.4-0.1,0.8-0.2,1.3-0.2
			c0.7,0,1.3,0.1,1.7,0.4c0.5,0.3,0.8,0.6,1.1,1.1c0.2,0.3,0.2,0.8,0.2,1.4l0,1.7v2.7c0,0.3,0,0.5,0.1,0.6c0,0.1,0.1,0.2,0.2,0.2
			c0.1,0,0.2,0.1,0.4,0.1l0.6,0.1V36c-0.5,0-0.9-0.1-1.3-0.1c-0.4,0-0.8,0-1.5,0.1l0-1.6c-1.2,0.9-2,1.5-2.2,1.6
			c-0.2,0.1-0.5,0.2-0.9,0.2c-0.7,0-1.3-0.2-1.7-0.6c-0.4-0.4-0.6-0.9-0.6-1.6c0-0.4,0.1-0.8,0.2-1.1c0.1-0.3,0.3-0.6,0.5-0.8
			c0.2-0.2,0.4-0.4,0.6-0.5c0.4-0.2,0.9-0.3,1.7-0.5c0.8-0.2,1.6-0.3,2.4-0.4c0-0.6-0.1-1-0.2-1.3c-0.1-0.3-0.4-0.6-0.7-0.8
			c-0.3-0.2-0.8-0.3-1.3-0.3c-0.4,0-0.7,0-0.9,0.1c-0.3,0.1-0.4,0.2-0.5,0.2l-0.2,0.3C122,29.3,121.9,29.6,121.8,29.8z M126,31.2
			c-0.8,0.1-1.5,0.3-2,0.4s-1,0.3-1.2,0.5c-0.1,0.1-0.3,0.3-0.4,0.5c-0.2,0.3-0.2,0.6-0.2,1c0,0.4,0.1,0.8,0.4,1.1
			c0.2,0.3,0.6,0.4,1,0.4c0.4,0,0.8-0.1,1.2-0.4c0.4-0.2,0.8-0.6,1.2-1.1V31.2z"/>
		<path class="st1" d="M129.3,36v-0.5c0.7,0,1.1,0,1.1,0c0.1,0,0.2,0,0.2-0.1c0.1,0,0.1-0.1,0.1-0.2c0.1-0.1,0.1-0.4,0.1-0.7
			c0-1.6,0.1-2.5,0.1-2.5V31c0-0.5,0-1,0-1.6c0-0.4,0-0.6-0.1-0.6c0-0.1-0.1-0.1-0.2-0.2c-0.1,0-0.5,0-1.2,0V28
			c1.2-0.2,2.1-0.4,2.7-0.7c0.1-0.1,0.2-0.1,0.2-0.1c0,0,0.1,0,0.1,0c0,0,0,0.1,0,0.1c0,0,0,0.1,0,0.1c0,0.4,0,0.9-0.1,1.7
			c0.3-0.3,0.5-0.6,0.8-0.9c0.2-0.3,0.4-0.5,0.5-0.6c0.2-0.2,0.4-0.3,0.6-0.4c0.2-0.1,0.5-0.1,0.7-0.1c0.3,0,0.5,0.1,0.8,0.2
			l0.1,0.1c-0.1,0.8-0.1,1.5-0.2,2.1h-0.4c-0.1-0.3-0.3-0.5-0.5-0.6c-0.2-0.1-0.4-0.2-0.7-0.2c-0.5,0-0.9,0.2-1.2,0.6
			c-0.3,0.4-0.5,1-0.5,1.7v0.9c0,0.4,0,1.1,0,2.2c0,0.4,0,0.6,0,0.7c0,0.1,0.1,0.2,0.1,0.2c0,0,0.1,0.1,0.2,0.1
			c0.2,0.1,0.7,0.1,1.5,0.2V36c-1.1,0-2-0.1-2.7-0.1C130.8,36,130,36,129.3,36z"/>
		<path class="st1" d="M143.5,35l-0.4,0.6c-0.4,0.2-0.8,0.4-1.2,0.5c-0.4,0.1-0.9,0.2-1.4,0.2c-1.3,0-2.3-0.4-3-1.2
			c-0.8-0.8-1.1-1.8-1.1-3.2c0-0.7,0.1-1.3,0.3-1.9c0.2-0.5,0.5-0.9,0.8-1.2c0.2-0.2,0.6-0.5,1.1-0.8c0.6-0.3,1-0.5,1.2-0.6
			c0.4-0.2,0.9-0.3,1.5-0.3c0.5,0,1,0.1,1.5,0.2c0.3,0.1,0.6,0.2,0.8,0.4c-0.1,0.5-0.1,0.8-0.2,1.1c0,0.2-0.1,0.7-0.1,1.3h-0.5
			c0-0.6-0.1-1-0.1-1.1c0-0.1-0.1-0.2-0.2-0.2c-0.2-0.2-0.5-0.3-0.8-0.4c-0.3-0.1-0.7-0.2-1.1-0.2c-0.5,0-1,0.1-1.3,0.3
			c-0.4,0.2-0.7,0.5-0.9,1c-0.2,0.5-0.3,1-0.3,1.7c0,0.8,0.1,1.6,0.4,2.2c0.3,0.7,0.7,1.2,1.2,1.5c0.5,0.3,1.1,0.5,1.7,0.5
			c0.3,0,0.6,0,0.9-0.1c0.3-0.1,0.7-0.2,1.1-0.4L143.5,35z"/>
		<path class="st1" d="M143.7,36v-0.5l0.9,0c0.1,0,0.2,0,0.3-0.1c0.1,0,0.1-0.1,0.2-0.2c0.1-0.1,0.1-0.3,0.1-0.6c0-0.1,0-1,0.1-2.6
			v-4.7c0-1,0-2.1-0.1-3.1c0-0.7-0.1-1.1-0.1-1.2c0-0.1-0.1-0.1-0.1-0.1c-0.1,0-0.5-0.1-1.3-0.1v-0.5c1.4-0.2,2.3-0.4,2.9-0.6
			c0.1,0,0.1-0.1,0.2-0.1s0.1,0,0.1,0c0,0,0,0.1,0,0.1c0,0,0,0.1,0,0.2l0,0.3c0,1.1,0,2-0.1,2.8l0,1.4V29c0.1-0.1,0.3-0.3,0.7-0.6
			c0.4-0.3,0.6-0.6,0.7-0.6c0.1-0.1,0.2-0.2,0.3-0.2c0.1-0.1,0.3-0.1,0.5-0.2c0.3-0.1,0.6-0.1,0.9-0.1c0.6,0,1.1,0.1,1.6,0.4
			c0.5,0.3,0.8,0.6,1,1c0.2,0.4,0.3,1,0.3,1.8V32l0,1.3c0,0.8,0,1.2,0,1.3c0,0.3,0,0.5,0.1,0.6c0,0.1,0.1,0.1,0.1,0.2
			c0,0,0.1,0.1,0.2,0.1c0,0,0.4,0,0.9,0V36c-0.7,0-1.2,0-1.5,0c-0.3,0-0.8,0-1.6,0c0.1-0.9,0.1-1.8,0.1-2.6v-2.3
			c0-0.7-0.1-1.2-0.2-1.5c-0.1-0.3-0.3-0.6-0.6-0.8c-0.3-0.2-0.7-0.4-1.3-0.4c-0.3,0-0.6,0-0.9,0.1c-0.3,0.1-0.5,0.2-0.7,0.4
			c-0.2,0.2-0.4,0.4-0.6,0.6c-0.1,0.1-0.1,0.2-0.1,0.4c0,0.2,0,0.5,0,0.9V32c0,1.6,0,2.4,0.1,2.6c0,0.3,0,0.5,0.1,0.7
			c0,0.1,0.1,0.1,0.1,0.2c0,0,0.1,0.1,0.2,0.1c0,0,0.4,0,1,0V36c-1.1,0-1.8-0.1-2.2-0.1C145.7,36,144.9,36,143.7,36z"/>
	</g>
</g>
</svg>
