<?xml version="1.0" encoding="utf-8"?>
<!-- Generator: Adobe Illustrator 22.0.1, SVG Export Plug-In . SVG Version: 6.00 Build 0)  -->
<svg version="1.1" id="Layer_1" xmlns="http://www.w3.org/2000/svg" xmlns:xlink="http://www.w3.org/1999/xlink" x="0px" y="0px"
	 viewBox="0 0 154.4 37.5" style="enable-background:new 0 0 154.4 37.5;" xml:space="preserve">
<metadata><?xpacket begin="﻿" id="W5M0MpCehiHzreSzNTczkc9d"?>
<x:xmpmeta xmlns:x="adobe:ns:meta/" x:xmptk="Adobe XMP Core 5.6-c143 79.161210, 2017/08/11-10:28:36        ">
   <rdf:RDF xmlns:rdf="http://www.w3.org/1999/02/22-rdf-syntax-ns#">
      <rdf:Description rdf:about=""/>
   </rdf:RDF>
</x:xmpmeta>
                                                                                                    
                                                                                                    
                                                                                                    
                                                                                                    
                                                                                                    
                                                                                                    
                                                                                                    
                                                                                                    
                                                                                                    
                                                                                                    
                                                                                                    
                                                                                                    
                                                                                                    
                                                                                                    
                                                                                                    
                                                                                                    
                                                                                                    
                                                                                                    
                                                                                                    
                                                                                                    
                           
<?xpacket end="w"?></metadata>
<style type="text/css">
	.st0{fill:#312782;}
	.st1{fill:none;stroke:#FFFFFF;stroke-width:0.5;stroke-linecap:round;stroke-linejoin:round;stroke-miterlimit:10;}
	.st2{fill:#868686;}
</style>
<g>
	<path class="st0" d="M18.4,0.7C8.6,0.8,0.7,8.7,0.7,18.5c0,9.8,7.9,17.7,17.7,17.8V0.7z"/>
	<g>
		<path class="st1" d="M18.4,0.2C8.3,0.2,0.1,8.4,0.1,18.5c0,10.1,8.2,18.3,18.3,18.3"/>
		<line class="st1" x1="1.5" y1="25.6" x2="10" y2="22.1"/>
		<line class="st1" x1="12.2" y1="21.2" x2="15.1" y2="20.1"/>
		<line class="st1" x1="5.5" y1="31.6" x2="12" y2="25.1"/>
		<line class="st1" x1="13.7" y1="23.4" x2="15.8" y2="21.3"/>
		<line class="st1" x1="11.5" y1="35.5" x2="15" y2="27"/>
		<line class="st1" x1="15.9" y1="24.9" x2="17" y2="22.2"/>
		<line class="st1" x1="1.5" y1="11.6" x2="10" y2="15.1"/>
		<line class="st1" x1="12.2" y1="16" x2="15.2" y2="17.2"/>
		<line class="st1" x1="5.5" y1="5.6" x2="12" y2="12.1"/>
		<line class="st1" x1="13.7" y1="13.8" x2="16" y2="16.1"/>
		<line class="st1" x1="11.5" y1="1.7" x2="15" y2="10.2"/>
		<polyline class="st1" points="18.5,0.3 18.5,9.5 18.5,9.5 		"/>
		<line class="st1" x1="15" y1="10.2" x2="15" y2="10.1"/>
		<polyline class="st1" points="15,10.1 5.5,5.6 12,12.1 		"/>
		<path class="st1" d="M10.1,15.1l-9.9,3.5h9.2l0,0C9.4,17.4,9.6,16.2,10.1,15.1L10.1,15.1"/>
		<path class="st1" d="M10.1,22.1l-4.5,9.5l6.5-6.5C11.2,24.2,10.5,23.2,10.1,22.1L10.1,22.1"/>
		<path class="st1" d="M15,27l3.5,9.9v-9.2l0,0C17.3,27.7,16.1,27.5,15,27L15,27"/>
		<line class="st1" x1="15.9" y1="12.3" x2="17.1" y2="15.3"/>
		<polyline class="st1" points="18.5,11.8 5.5,5.6 11.7,18.5 		"/>
		<path class="st1" d="M18.4,11.8c-3.7,0-6.8,3-6.8,6.8s3,6.8,6.8,6.8"/>
		<path class="st1" d="M18.7,15c-2.1,0-3.8,1.7-3.8,3.8c0,2.1,1.7,3.8,3.8,3.8"/>
		<polyline class="st1" points="11.7,18.7 5.5,31.6 18.5,25.4 		"/>
		<path class="st1" d="M18.5,25.4"/>
		<path class="st1" d="M18.5,11.8"/>
		<polyline class="st1" points="8.5,12 1.5,11.6 6.8,16.3 		"/>
		<polyline class="st1" points="11.8,28.6 11.5,35.5 16.2,30.3 		"/>
		<polyline class="st1" points="16.2,6.9 11.5,1.7 11.8,8.7 		"/>
		<polyline class="st1" points="6.8,20.9 1.5,25.6 8.5,25.2 		"/>
		<polyline class="st1" points="18.5,0.3 13.7,13.8 0.2,18.6 13.7,23.4 18.5,36.9 		"/>
		<path class="st1" d="M18.5,36.9"/>
		<path class="st1" d="M18.5,11.8"/>
		<polyline class="st1" points="18.5,25.4 18.5,25.4 18.5,25.4 		"/>
		<path class="st1" d="M18.5,25.4"/>
		<path class="st1" d="M13.7,23.4L15,27l3.5-1.7C16.7,25.4,15,24.7,13.7,23.4L13.7,23.4"/>
		<line class="st1" x1="13.7" y1="13.8" x2="13.7" y2="13.8"/>
		<polyline class="st1" points="13.7,13.8 10.1,15.1 11.7,18.5 		"/>
		<path class="st1" d="M18.4,9.4c-5,0-9.1,4.1-9.1,9.1c0,5,4.1,9.1,9.1,9.1"/>
	</g>
	<g>
		<path class="st0" d="M25.7,17.5v-0.6c0.2-0.1,0.5-0.2,0.9-0.5c0.2-0.1,0.3-0.2,0.3-0.2c0,0,0.1-0.1,0.1-0.1c0-0.2,0.1-0.9,0.1-2.2
			c0-1.2,0-2.7,0-4.4c0-2.5,0-4.1,0-4.7c0-1.5-0.1-2.4-0.2-2.6c0-0.1-0.1-0.2-0.2-0.2c-0.2-0.1-0.8-0.2-1.8-0.2V0.6
			c1,0,2.2,0.1,3.5,0.1c1.5,0,2.9,0,4.2-0.1v1.1c-0.9,0-1.5,0.1-1.7,0.2c-0.1,0-0.2,0.1-0.2,0.2c0,0.1-0.1,0.6-0.1,1.5
			c0,0.9-0.1,2-0.1,3.4c0,0.1,0,1.3,0,3.5c0,1.2,0,2.3,0,3.4c0,1.1,0,1.8,0,2.1c1.1,0,1.9,0.1,2.3,0.1c1.2,0,2.3-0.1,3.2-0.2
			c0.3,0,0.5-0.1,0.6-0.2c0.1-0.1,0.1-0.2,0.2-0.4c0.2-0.6,0.3-1.3,0.5-2.1h1c0,0.2,0,0.4,0,0.4L38,15.9c-0.1,0.8-0.1,1.2-0.1,1.4
			c-0.2,0.1-0.5,0.1-0.7,0.1c-0.5,0-1.3,0.1-2.3,0.1c-0.1,0-1.1,0-2.8-0.1c-1.3,0-2.3,0-2.8,0C28.5,17.4,27.3,17.4,25.7,17.5z"/>
		<path class="st0" d="M50.9,16.6v0.9c-0.9,0-1.7-0.1-2.5-0.1c-0.7,0-1.3,0-2,0.1l-0.1-0.1l0.1-1.6c-0.3,0.2-1.1,0.8-2.6,1.9
			c-0.4,0.1-0.7,0.1-1,0.1c-0.9,0-1.6-0.3-2.1-0.8c-0.5-0.5-0.7-1.3-0.7-2.2c0-0.7,0.1-1.2,0.3-1.6c0.2-0.4,0.5-0.7,0.7-0.9
			c0.3-0.2,0.6-0.4,1.2-0.6c1.3-0.5,2.7-0.8,4.2-1.1c0-1-0.2-1.7-0.6-2.2C45.5,8,44.8,7.7,44,7.7c-0.3,0-0.7,0-1,0.1
			c-0.1,0-0.3,0.1-0.5,0.2L42,9.3l-0.8-0.2l0.1-1.6c0.6-0.4,1.2-0.8,1.7-1C43.5,6.2,43.9,6,44.1,6c0.3-0.1,0.7-0.1,1.3-0.1
			c0.9,0,1.6,0.1,2.2,0.4c0.6,0.3,1,0.6,1.3,0.9c0.3,0.3,0.5,0.7,0.6,1.1c0.1,0.4,0.2,0.9,0.2,1.5c0,0.3,0,0.9-0.1,2
			c0,0.7,0,1.3,0,1.8c0,1.4,0,2.3,0.1,2.6c0,0.1,0.1,0.2,0.2,0.3C49.8,16.5,50.2,16.5,50.9,16.6z M46.5,11.7
			c-0.7,0.1-1.3,0.3-1.9,0.5c-0.6,0.2-1,0.5-1.2,0.8c-0.2,0.3-0.3,0.7-0.3,1.1c0,0.5,0.1,0.9,0.4,1.2c0.3,0.3,0.6,0.4,1,0.4
			c0.4,0,0.7-0.1,1.1-0.3c0.4-0.2,0.7-0.5,0.9-0.8V11.7z"/>
		<path class="st0" d="M66.1,16.6v0.9c-1.1-0.1-2-0.1-2.7-0.1c-0.8,0-1.5,0-2.1,0.1l-0.2-0.2c0-0.2,0.1-0.9,0.2-2.1l0.1-2v-1
			c0-1.4-0.1-2.3-0.2-2.8C61,9,60.8,8.7,60.5,8.4C60.1,8.1,59.7,8,59.1,8c-0.6,0-1,0.1-1.4,0.4C57.4,8.7,57.1,9,57,9.2
			C57,9.4,56.9,10,57,11.2v2c0,0.6,0,1.3,0,2.2c0,0.4,0,0.6,0.1,0.7c0,0.1,0.1,0.2,0.2,0.2c0.1,0.1,0.3,0.1,0.6,0.2
			c0.1,0,0.4,0,1,0.1v0.9c-0.9,0-2,0-3.2,0c-1.5,0-2.6,0-3.4,0v-0.9c0.6,0,1.1,0,1.3-0.1c0.1,0,0.2-0.1,0.3-0.2
			c0.1-0.2,0.1-0.4,0.1-0.9l0-1.1c0-0.2,0-0.6,0-1.1v-1.6c0-0.7,0-1.6-0.1-2.6c0-0.5-0.1-0.8-0.1-0.9c0-0.1-0.1-0.1-0.2-0.2
			c-0.2-0.1-0.6-0.1-1.4-0.1V6.9c1.5-0.2,2.4-0.4,2.9-0.6c0.5-0.1,1-0.3,1.6-0.6L57,5.9v1.9l2.2-1.8c0.3-0.1,0.5-0.2,0.7-0.2
			c0.2,0,0.4-0.1,0.8-0.1c0.9,0,1.5,0.1,1.9,0.3c0.4,0.2,0.8,0.5,1.1,0.8c0.3,0.4,0.5,0.7,0.6,1.1c0.1,0.4,0.2,1,0.2,1.8
			c0,0.9,0,1.5,0,1.7c0,0.1,0,0.2,0,0.3l0,1.2c0,1.4,0,2.2,0.1,2.5c0,0.3,0.1,0.5,0.2,0.6c0.1,0.1,0.3,0.2,0.7,0.2
			C65.5,16.5,65.7,16.5,66.1,16.6z"/>
		<path class="st0" d="M67.9,13.7h1c0,0.9,0.1,1.5,0.1,1.7c0.4,0.4,0.8,0.8,1.2,1c0.4,0.2,0.9,0.3,1.5,0.3c0.8,0,1.3-0.2,1.7-0.5
			c0.4-0.4,0.6-0.8,0.6-1.3c0-0.3-0.1-0.6-0.2-0.8c-0.1-0.2-0.4-0.4-0.8-0.6c-0.3-0.1-0.9-0.3-1.8-0.5c-0.9-0.2-1.6-0.4-2-0.6
			c-0.5-0.2-0.8-0.6-1.1-1c-0.3-0.5-0.4-1-0.4-1.6c0-1.1,0.4-2,1.3-2.8c0.8-0.7,2-1.1,3.6-1.1c0.7,0,1.3,0.1,1.8,0.2
			c0.5,0.1,1,0.3,1.5,0.5l0,0.1c0,0.3-0.1,0.6-0.1,0.9c0,0.3-0.1,1-0.1,2.1l-0.9,0c0-0.1,0-0.2,0-0.4c0-0.4-0.1-0.7-0.1-1
			c-0.2-0.3-0.6-0.6-0.9-0.7C73.3,7.1,72.8,7,72.3,7c-0.7,0-1.2,0.2-1.6,0.5c-0.4,0.3-0.6,0.7-0.6,1.1c0,0.4,0.1,0.8,0.3,1
			c0.2,0.2,0.4,0.4,0.7,0.5c0.3,0.1,0.9,0.2,1.8,0.4c0.9,0.2,1.5,0.3,1.8,0.4c0.4,0.2,0.8,0.4,1.1,0.6c0.3,0.3,0.5,0.6,0.6,1
			c0.1,0.4,0.2,0.8,0.2,1.3c0,1.2-0.5,2.2-1.4,3c-0.9,0.8-2.2,1.2-3.9,1.2c-0.6,0-1.1-0.1-1.6-0.2c-0.5-0.1-1.2-0.3-1.9-0.5L67.7,17
			c0.1-0.6,0.1-1.1,0.1-1.3L67.9,13.7z"/>
		<path class="st0" d="M92,16.6v0.9l-2.5,0l-2.2,0l-0.1-0.1l0.1-1l0-1c-0.6,0.5-1.2,1-1.8,1.6c-0.3,0.2-0.5,0.4-0.8,0.6
			c-0.3,0.1-0.7,0.2-1.2,0.2c-1.3,0-2.4-0.5-3.3-1.5c-0.9-1-1.3-2.3-1.3-4c0-0.9,0.1-1.8,0.4-2.5c0.2-0.6,0.4-1,0.7-1.3
			c0.2-0.2,0.7-0.7,1.6-1.3s1.5-1,1.9-1.2c0.4-0.1,0.9-0.2,1.5-0.2c0.4,0,0.7,0,1,0.1c0.3,0.1,0.7,0.2,1.3,0.4c0-0.5,0-1,0-1.5
			c0-0.6,0-1.4-0.1-2.2c0-0.4-0.1-0.7-0.1-0.8C87,1.8,87,1.8,86.9,1.7c-0.1,0-0.6,0-1.5-0.1V0.8c1.7-0.2,3.3-0.5,4.8-1l0.3,0.2
			c-0.1,2.2-0.1,3.4-0.2,3.8c0,2.1,0,5,0,8.8v1.1c0,0.5,0,1.1,0.1,1.8c0,0.5,0.1,0.7,0.1,0.8c0.1,0.1,0.1,0.2,0.3,0.2
			C90.8,16.5,91.3,16.6,92,16.6z M87.3,8.9c-0.4-0.5-0.8-0.9-1.1-1c-0.5-0.3-1.1-0.5-1.7-0.5c-0.6,0-1,0.1-1.4,0.4
			c-0.4,0.3-0.6,0.7-0.8,1.3S82,10.4,82,11.2c0,1.5,0.3,2.6,0.9,3.4c0.5,0.6,1.1,0.9,1.9,0.9c0.6,0,1.1-0.2,1.6-0.5
			c0.4-0.3,0.7-0.7,0.8-1c0.1-0.3,0.1-1.3,0.1-2.9L87.3,8.9z"/>
		<path class="st0" d="M93.7,11.8c0-1.4,0.2-2.5,0.7-3.4c0.5-0.9,1.2-1.6,2.1-2c0.9-0.5,2-0.7,3.3-0.7c1.9,0,3.3,0.5,4.2,1.5
			c1,1,1.5,2.4,1.5,4.3c0,1.1-0.1,2-0.4,2.8c-0.3,0.8-0.7,1.4-1.1,1.9c-0.5,0.5-1,0.9-1.5,1.1c-0.9,0.4-1.9,0.6-3,0.6
			c-1.8,0-3.2-0.5-4.2-1.6C94.2,15.3,93.7,13.8,93.7,11.8z M97,11.2c0,2.1,0.3,3.7,0.9,4.6c0.4,0.6,1,0.9,1.8,0.9
			c0.7,0,1.2-0.2,1.6-0.7c0.5-0.6,0.8-1.8,0.8-3.5c0-1.2-0.1-2.3-0.3-3.2c-0.2-0.9-0.5-1.5-0.9-1.8c-0.4-0.3-0.9-0.5-1.4-0.5
			c-0.5,0-0.9,0.1-1.3,0.4c-0.4,0.3-0.6,0.7-0.8,1.3C97.1,9.2,97,10.1,97,11.2z"/>
		<path class="st0" d="M111.2,17.6c0-0.1-0.1-0.4-0.2-0.9c-0.1-0.3-0.2-0.7-0.3-1.1l-1-3.6c-0.4-1.5-0.7-2.5-0.8-2.9
			c-0.3-1-0.5-1.5-0.6-1.7c0-0.1-0.1-0.1-0.2-0.2c-0.2-0.1-0.6-0.1-1.3-0.1v-1c1,0,2.1,0,3.3,0c1.2,0,2.3,0,3.4,0v1
			c-0.9,0-1.4,0-1.5,0.1c-0.1,0.1-0.2,0.2-0.2,0.3c0,0.2,0,0.4,0.1,0.7l1.5,5.5l2.1-4.6l0.7-1.6l0.7-1.7h1.2l3.4,7.9l1.2-3.5
			c0.2-0.6,0.4-1.2,0.5-1.9c0.1-0.4,0.1-0.6,0.1-0.7c0-0.2-0.1-0.3-0.2-0.4c-0.1-0.1-0.6-0.1-1.5-0.1v-1c0.9,0,1.7,0,2.4,0
			c0.7,0,1.6,0,2.6,0v1c-0.6,0-0.9,0.1-0.9,0.1c-0.1,0-0.2,0.1-0.3,0.2c-0.1,0.1-0.2,0.2-0.2,0.3c-0.1,0.1-0.3,0.6-0.6,1.6
			c-0.1,0.4-0.4,1-0.7,2l-0.6,1.9l-0.2,0.5c-0.1,0.3-0.4,1.1-0.8,2.4l-0.5,1.6h-2c-0.8-1.8-1.2-2.9-1.3-3.2l-1.9-4.4
			c-0.7,1.4-1.2,2.5-1.6,3.3c-0.3,0.8-0.6,1.4-0.9,2l-0.9,2.3H111.2z"/>
		<path class="st0" d="M141.6,16.6v0.9c-1.1-0.1-2-0.1-2.7-0.1c-0.8,0-1.5,0-2.1,0.1l-0.2-0.2c0-0.2,0.1-0.9,0.2-2.1l0.1-2v-1
			c0-1.4-0.1-2.3-0.2-2.8c-0.1-0.4-0.3-0.8-0.7-1.1c-0.3-0.3-0.8-0.4-1.4-0.4s-1,0.1-1.4,0.4c-0.4,0.3-0.6,0.5-0.7,0.8
			c-0.1,0.2-0.1,0.8-0.1,1.9v2c0,0.6,0,1.3,0,2.2c0,0.4,0,0.6,0.1,0.7c0,0.1,0.1,0.2,0.2,0.2c0.1,0.1,0.3,0.1,0.6,0.2
			c0.1,0,0.4,0,1,0.1v0.9c-0.9,0-2,0-3.2,0c-1.5,0-2.6,0-3.4,0v-0.9c0.6,0,1.1,0,1.3-0.1c0.1,0,0.2-0.1,0.3-0.2
			c0.1-0.2,0.1-0.4,0.1-0.9l0-1.1c0-0.2,0-0.6,0-1.1v-1.6c0-0.7,0-1.6-0.1-2.6c0-0.5-0.1-0.8-0.1-0.9c0-0.1-0.1-0.1-0.2-0.2
			c-0.2-0.1-0.6-0.1-1.4-0.1V6.9c1.5-0.2,2.4-0.4,2.9-0.6c0.5-0.1,1-0.3,1.6-0.6l0.3,0.1v1.9l2.2-1.8c0.3-0.1,0.5-0.2,0.7-0.2
			c0.2,0,0.4-0.1,0.8-0.1c0.9,0,1.5,0.1,1.9,0.3c0.4,0.2,0.8,0.5,1.1,0.8c0.3,0.4,0.5,0.7,0.6,1.1c0.1,0.4,0.2,1,0.2,1.8
			c0,0.9,0,1.5,0,1.7c0,0.1,0,0.2,0,0.3l0,1.2c0,1.4,0,2.2,0.1,2.5c0,0.3,0.1,0.5,0.2,0.6c0.1,0.1,0.3,0.2,0.7,0.2
			C141,16.5,141.2,16.5,141.6,16.6z"/>
		<path class="st0" d="M153.3,15.6l-0.5,1.2c-0.7,0.4-1.3,0.7-2,0.9c-0.5,0.1-1.1,0.2-1.8,0.2c-0.8,0-1.5-0.1-2.1-0.3
			c-0.6-0.2-1.1-0.4-1.6-0.8c-0.4-0.3-0.8-0.7-1.1-1.2c-0.3-0.5-0.6-1-0.7-1.6c-0.1-0.6-0.2-1.3-0.2-2c0-1.1,0.1-2,0.4-2.8
			c0.2-0.6,0.4-1,0.7-1.3c0.2-0.2,0.6-0.5,1.3-0.9c0.7-0.4,1.2-0.7,1.5-0.9c0.6-0.2,1.2-0.4,2-0.4c1.1,0,2,0.2,2.7,0.7
			c0.7,0.5,1.2,1,1.5,1.7s0.4,1.5,0.4,2.5c0,0.2,0,0.4,0,0.7c-0.2,0.1-0.5,0.1-0.9,0.2c-0.5,0.1-0.9,0.2-1.1,0.2
			c-0.6,0-1.4,0.1-2.4,0.1c-1,0-1.5,0-1.6,0c-0.1,0-0.2,0-0.3,0h-0.8c0.1,1.3,0.5,2.3,1.2,3c0.7,0.7,1.6,1.1,2.7,1.1
			c0.5,0,0.9-0.1,1.3-0.2c0.4-0.1,0.9-0.3,1.5-0.6L153.3,15.6z M150.4,10.6c0-1.3-0.1-2.2-0.5-2.7c-0.4-0.5-0.9-0.8-1.5-0.8
			c-0.6,0-1.1,0.3-1.6,0.8c-0.4,0.5-0.6,1.4-0.6,2.7c0.5,0.1,1.3,0.1,2.4,0.1C149.3,10.7,149.9,10.7,150.4,10.6z"/>
	</g>
	<g>
		<path class="st2" d="M32.1,34.6l-0.3,0.7c-0.4,0.3-0.7,0.4-0.9,0.5c-0.3,0.1-0.6,0.2-1,0.3c-0.4,0.1-0.8,0.1-1.2,0.1
			c-0.8,0-1.5-0.2-2.2-0.5c-0.6-0.3-1.2-0.8-1.5-1.5c-0.4-0.7-0.5-1.4-0.5-2.3c0-0.7,0.1-1.3,0.3-1.9c0.2-0.6,0.4-1,0.7-1.2
			c0.2-0.2,0.4-0.4,0.8-0.7c0.4-0.3,0.7-0.5,1.1-0.6c0.5-0.2,1-0.3,1.6-0.3c0.7,0,1.3,0.2,1.8,0.5c0.5,0.3,1,0.7,1.2,1.3
			c0.3,0.5,0.4,1.1,0.4,1.8c0,0.2,0,0.4,0,0.6c-0.4,0.1-0.8,0.1-1.2,0.2c-0.7,0-1.3,0.1-2,0.1h-2.9c0,0.9,0.2,1.6,0.5,2.1
			c0.3,0.5,0.7,0.9,1.2,1.2c0.5,0.3,1,0.4,1.6,0.4c0.4,0,0.7-0.1,1.1-0.2c0.4-0.1,0.8-0.3,1.4-0.7L32.1,34.6z M26.2,30.9
			c0.2,0,0.5,0,1,0.1c0.9,0,1.5,0,1.9,0c0.8,0,1.3,0,1.6,0c0-0.1,0-0.3,0-0.3c0-1-0.2-1.7-0.6-2.1c-0.4-0.4-0.9-0.7-1.6-0.7
			c-0.7,0-1.2,0.2-1.7,0.7C26.4,29.1,26.2,29.8,26.2,30.9z"/>
		<path class="st2" d="M33,36v-0.5c0.3,0,0.5,0,0.7-0.1c0.2-0.1,0.5-0.4,0.9-0.8l2.1-2.6l-0.8-1.1c-0.4-0.6-0.8-1.2-1.2-1.7
			c-0.4-0.5-0.7-0.8-1-1c-0.1-0.1-0.2-0.1-0.3-0.1c-0.1,0-0.2,0-0.3,0L33,27.6c0.7-0.1,1.4-0.2,2.1-0.4c0.2,0.2,0.4,0.4,0.6,0.7
			c0.3,0.4,0.7,1,1.2,1.8l0.7,1.1l0.6-0.7c0.4-0.6,1.1-1.4,1.9-2.6c0.3,0,0.6,0,0.7,0c0.1,0,0.4,0,0.7,0v0.5c-0.3,0-0.5,0.1-0.6,0.1
			c-0.3,0.2-0.7,0.7-1.4,1.5l-0.9,1l-0.6,0.7l0.3,0.5c0.1,0.2,0.5,0.8,1.2,1.6c0.6,0.9,1.1,1.5,1.3,1.7c0.1,0.1,0.2,0.2,0.3,0.3
			c0.1,0,0.3,0.1,0.5,0.1V36c-0.4,0-0.8,0-1.1,0c-0.4,0-0.7,0-1.1,0c-0.4-0.5-0.7-1-1-1.4l-1.4-2.1c-0.7,0.8-1.5,1.9-2.5,3.5
			c-0.2,0-0.5,0-0.8,0C33.5,36,33.2,36,33,36z"/>
		<path class="st2" d="M50,34.6l-0.3,0.7c-0.4,0.3-0.7,0.4-0.9,0.5c-0.3,0.1-0.6,0.2-1,0.3c-0.4,0.1-0.8,0.1-1.2,0.1
			c-0.8,0-1.5-0.2-2.2-0.5c-0.6-0.3-1.2-0.8-1.5-1.5c-0.4-0.7-0.5-1.4-0.5-2.3c0-0.7,0.1-1.3,0.3-1.9c0.2-0.6,0.4-1,0.7-1.2
			c0.2-0.2,0.4-0.4,0.8-0.7c0.4-0.3,0.7-0.5,1.1-0.6c0.5-0.2,1-0.3,1.6-0.3c0.7,0,1.3,0.2,1.8,0.5c0.5,0.3,1,0.7,1.2,1.3
			c0.3,0.5,0.4,1.1,0.4,1.8c0,0.2,0,0.4,0,0.6c-0.4,0.1-0.8,0.1-1.2,0.2c-0.7,0-1.3,0.1-2,0.1h-2.9c0,0.9,0.2,1.6,0.5,2.1
			c0.3,0.5,0.7,0.9,1.2,1.2c0.5,0.3,1,0.4,1.6,0.4c0.4,0,0.7-0.1,1.1-0.2c0.4-0.1,0.8-0.3,1.4-0.7L50,34.6z M44.2,30.9
			c0.2,0,0.5,0,1,0.1c0.9,0,1.5,0,1.9,0c0.8,0,1.3,0,1.6,0c0-0.1,0-0.3,0-0.3c0-1-0.2-1.7-0.6-2.1c-0.4-0.4-0.9-0.7-1.6-0.7
			c-0.7,0-1.2,0.2-1.7,0.7C44.4,29.1,44.2,29.8,44.2,30.9z"/>
		<path class="st2" d="M58.5,35l-0.4,0.6c-0.4,0.2-0.8,0.4-1.2,0.5s-0.9,0.2-1.4,0.2c-1.3,0-2.3-0.4-3-1.2c-0.8-0.8-1.1-1.8-1.1-3.2
			c0-0.7,0.1-1.3,0.3-1.9c0.2-0.5,0.5-0.9,0.8-1.2c0.2-0.2,0.6-0.5,1.1-0.8c0.6-0.3,1-0.5,1.2-0.6c0.4-0.2,0.9-0.3,1.5-0.3
			c0.5,0,1,0.1,1.5,0.2c0.3,0.1,0.6,0.2,0.8,0.4c-0.1,0.5-0.1,0.8-0.2,1.1c0,0.2-0.1,0.7-0.1,1.3h-0.5c0-0.6-0.1-1-0.1-1.1
			c0-0.1-0.1-0.2-0.2-0.2c-0.2-0.2-0.5-0.3-0.8-0.4c-0.3-0.1-0.7-0.2-1.1-0.2c-0.5,0-1,0.1-1.3,0.3c-0.4,0.2-0.7,0.5-0.9,1
			c-0.2,0.5-0.3,1-0.3,1.7c0,0.8,0.1,1.6,0.4,2.2c0.3,0.7,0.7,1.2,1.2,1.5c0.5,0.3,1.1,0.5,1.7,0.5c0.3,0,0.6,0,0.9-0.1
			c0.3-0.1,0.7-0.2,1.1-0.4L58.5,35z"/>
		<path class="st2" d="M69.3,35.5V36c-0.8,0-1.4-0.1-1.8-0.1c-0.4,0-0.9,0-1.4,0.1c0-0.5,0.1-1,0.1-1.7c-0.4,0.3-0.8,0.7-1.3,1.2
			c-0.1,0.1-0.2,0.2-0.3,0.3c-0.3,0.1-0.5,0.3-0.8,0.3c-0.3,0.1-0.6,0.1-0.9,0.1c-0.5,0-0.9-0.1-1.2-0.2c-0.3-0.1-0.6-0.3-0.9-0.6
			c-0.2-0.2-0.3-0.5-0.4-0.8c-0.1-0.3-0.1-0.7-0.1-1.2c0-0.2,0-0.4,0-0.6c0-0.2,0-0.4,0-0.6v-1.6c0-0.2,0-0.6,0-1.2
			c0-0.4,0-0.7-0.1-0.8c0-0.1-0.1-0.1-0.1-0.1c-0.1-0.1-0.3-0.1-0.5-0.1c-0.3,0-0.6,0-0.8,0V28c1.3-0.1,2.3-0.4,2.8-0.7
			c0.1-0.1,0.2-0.1,0.2-0.1c0,0,0.1,0,0.1,0c0,0,0,0.1,0,0.1c0,0,0,0.1,0,0.2c0,0.2,0,0.6-0.1,1.1c0,1-0.1,1.7-0.1,2v1.8
			c0,0.7,0.1,1.3,0.2,1.6c0.1,0.3,0.3,0.5,0.6,0.7c0.3,0.2,0.6,0.3,1.1,0.3c0.3,0,0.6-0.1,0.9-0.2c0.3-0.1,0.5-0.2,0.8-0.4
			c0.2-0.1,0.3-0.3,0.5-0.6c0.1-0.2,0.2-0.3,0.3-0.4c0-0.1,0.1-0.2,0.1-0.4c0-0.5,0-1.1,0-1.6v-0.8c0-0.2,0-0.6,0-1.2
			c0-0.4,0-0.7-0.1-0.8c0-0.1-0.1-0.1-0.1-0.1c-0.1-0.1-0.3-0.1-0.5-0.1c-0.3,0-0.6,0-0.8,0V28c1.3-0.1,2.3-0.4,2.8-0.7
			c0.1-0.1,0.2-0.1,0.2-0.1c0,0,0.1,0,0.1,0c0,0,0,0.1,0,0.1c0,0,0,0.1,0,0.2c0,0.2,0,0.6-0.1,1.2c0,1-0.1,1.7-0.1,2V32l0,1.3
			c0,0.7,0,1.2,0,1.3c0,0.3,0,0.5,0.1,0.7c0,0.1,0.1,0.1,0.1,0.1c0,0,0.1,0.1,0.2,0.1C68.4,35.5,68.7,35.5,69.3,35.5z"/>
		<path class="st2" d="M69.9,28.9v-0.4c0.6-0.2,1.1-0.4,1.4-0.6c0-1.4,0-2.4-0.1-2.8c0.6-0.2,1.1-0.5,1.5-0.7l0.2,0.2
			c-0.1,0.5-0.1,1.6-0.2,3.3c0.5,0,0.8,0,0.9,0c0.1,0,0.4,0,0.9,0c0.3,0,0.6,0,0.7,0l0.1,0.1l-0.2,0.8c-0.4,0-0.7,0-1.1,0
			s-0.8,0-1.3,0l-0.1,3.7c0,0.9,0,1.4,0,1.6c0,0.2,0.1,0.3,0.2,0.5c0.1,0.1,0.2,0.2,0.3,0.3c0.1,0.1,0.4,0.1,0.7,0.2
			c0.2,0,0.5,0,0.6,0c0.2,0,0.4-0.1,0.6-0.2l0.1,0.4c-0.3,0.2-0.6,0.5-0.8,0.7c-0.2,0.1-0.4,0.1-0.6,0.2c-0.2,0-0.4,0-0.7,0
			c-0.3,0-0.6,0-0.8-0.1c-0.2-0.1-0.4-0.2-0.5-0.3c-0.2-0.1-0.3-0.3-0.4-0.5c-0.1-0.2-0.2-0.5-0.2-0.9c0-0.4,0-0.9,0-1.4
			c0-0.1,0-0.2,0-0.3v-3.8h-0.4C70.6,28.9,70.3,28.9,69.9,28.9z"/>
		<path class="st2" d="M75.7,28.6V28c1.2-0.1,2.2-0.4,3-0.8l0.2,0.1c0,1.3-0.1,2.3-0.1,3V32c0,1.6,0,2.4,0.1,2.6
			c0,0.3,0,0.5,0.1,0.7c0,0.1,0.1,0.1,0.1,0.1c0,0,0.1,0.1,0.2,0.1c0,0,0.4,0,1,0V36c-0.9,0-1.7-0.1-2.2-0.1c-0.5,0-1.3,0-2.4,0.1
			v-0.5l0.9,0c0.1,0,0.2,0,0.3-0.1c0.1,0,0.1-0.1,0.2-0.2c0.1-0.1,0.1-0.3,0.1-0.6c0-0.1,0-0.9,0.1-2.6v-1.6c0-0.9,0-1.4-0.1-1.6
			c0-0.1-0.1-0.2-0.2-0.2C76.8,28.6,76.4,28.6,75.7,28.6z M77.9,23.2c0.3,0,0.5,0.1,0.7,0.3c0.2,0.2,0.3,0.4,0.3,0.7
			c0,0.3-0.1,0.5-0.3,0.7s-0.4,0.3-0.7,0.3c-0.3,0-0.5-0.1-0.7-0.3c-0.2-0.2-0.3-0.4-0.3-0.7c0-0.3,0.1-0.5,0.3-0.7
			C77.4,23.3,77.6,23.2,77.9,23.2z"/>
		<path class="st2" d="M85.1,36.1c-0.2-0.6-0.4-1-0.5-1.2l-0.7-1.7L82,28.8c-0.1-0.3-0.2-0.5-0.3-0.5c-0.1-0.1-0.2-0.1-0.3-0.2
			c-0.1,0-0.3,0-0.7-0.1v-0.5c1,0,1.7,0.1,2.2,0.1c0.5,0,1.2,0,2.1-0.1V28c-0.7,0-1,0.1-1.2,0.1c-0.1,0.1-0.2,0.2-0.2,0.3
			c0,0.2,0.1,0.6,0.4,1.2l1.1,2.8l0.3,0.6c0.3,0.7,0.5,1.2,0.6,1.4l0.9-2.1c0.1-0.1,0.3-0.8,0.8-2c0.3-0.7,0.5-1.3,0.6-1.7
			c0-0.1,0-0.2,0-0.3c0-0.1,0-0.2-0.1-0.2c-0.1-0.1-0.5-0.1-1.2-0.1v-0.5c0.9,0,1.5,0.1,1.7,0.1c0.2,0,0.8,0,1.7-0.1V28
			c-0.4,0-0.6,0.1-0.8,0.1c-0.1,0.1-0.2,0.2-0.4,0.4c-0.1,0.1-0.4,0.8-1,2l-0.9,1.9c-0.2,0.3-0.7,1.6-1.6,3.7H85.1z"/>
		<path class="st2" d="M98.7,34.6l-0.3,0.7c-0.4,0.3-0.7,0.4-0.9,0.5c-0.3,0.1-0.6,0.2-1,0.3c-0.4,0.1-0.8,0.1-1.2,0.1
			c-0.8,0-1.5-0.2-2.2-0.5c-0.6-0.3-1.2-0.8-1.5-1.5c-0.4-0.7-0.5-1.4-0.5-2.3c0-0.7,0.1-1.3,0.3-1.9c0.2-0.6,0.4-1,0.7-1.2
			c0.2-0.2,0.4-0.4,0.8-0.7c0.4-0.3,0.7-0.5,1.1-0.6c0.5-0.2,1-0.3,1.6-0.3c0.7,0,1.3,0.2,1.8,0.5c0.5,0.3,1,0.7,1.2,1.3
			c0.3,0.5,0.4,1.1,0.4,1.8c0,0.2,0,0.4,0,0.6c-0.4,0.1-0.8,0.1-1.2,0.2c-0.7,0-1.3,0.1-2,0.1h-2.9c0,0.9,0.2,1.6,0.5,2.1
			c0.3,0.5,0.7,0.9,1.2,1.2c0.5,0.3,1,0.4,1.6,0.4c0.4,0,0.7-0.1,1.1-0.2c0.4-0.1,0.8-0.3,1.4-0.7L98.7,34.6z M92.8,30.9
			c0.2,0,0.5,0,1,0.1c0.9,0,1.5,0,1.9,0c0.8,0,1.3,0,1.6,0c0-0.1,0-0.3,0-0.3c0-1-0.2-1.7-0.6-2.1c-0.4-0.4-0.9-0.7-1.6-0.7
			c-0.7,0-1.2,0.2-1.7,0.7C93.1,29.1,92.9,29.8,92.8,30.9z"/>
		<path class="st2" d="M104.5,33.3h0.5c0,0.4,0,0.6,0.1,0.8c0,0.2,0.1,0.4,0.2,0.6c0.1,0.2,0.2,0.4,0.3,0.5c0.2,0.1,0.3,0.2,0.5,0.3
			c0.2,0.1,0.4,0.1,0.5,0.2c0.2,0,0.5,0,0.8,0c0.6,0,1.1-0.2,1.5-0.5c0.4-0.3,0.6-0.8,0.6-1.3c0-0.3-0.1-0.5-0.2-0.7
			c-0.1-0.2-0.3-0.3-0.5-0.5c-0.2-0.1-0.7-0.3-1.5-0.4c-0.8-0.2-1.3-0.3-1.5-0.4c-0.3-0.1-0.6-0.3-0.8-0.5c-0.2-0.2-0.4-0.4-0.5-0.7
			c-0.1-0.3-0.2-0.6-0.2-0.9c0-0.5,0.1-0.9,0.4-1.3c0.3-0.4,0.6-0.7,1.2-1c0.5-0.3,1.1-0.4,1.8-0.4c0.4,0,0.8,0.1,1.3,0.2
			c0.5,0.1,0.9,0.2,1.2,0.4c0,0.7-0.1,1.4-0.1,2.1h-0.5c0-0.4-0.1-0.7-0.1-0.9c0-0.1-0.1-0.3-0.2-0.4s-0.2-0.2-0.3-0.4
			c-0.2-0.1-0.4-0.2-0.6-0.3c-0.3-0.1-0.6-0.1-1-0.1c-0.5,0-1,0.2-1.3,0.5c-0.3,0.3-0.5,0.7-0.5,1.1c0,0.2,0,0.4,0.1,0.6
			c0.1,0.2,0.2,0.3,0.4,0.4c0.2,0.1,0.4,0.2,0.7,0.3l1.5,0.4c0.8,0.2,1.3,0.4,1.6,0.5c0.3,0.1,0.5,0.4,0.7,0.7
			c0.2,0.3,0.3,0.6,0.3,1.1c0,0.8-0.3,1.5-1,2.1c-0.7,0.6-1.6,0.9-2.7,0.9c-0.5,0-1.2-0.1-2.1-0.2c-0.5-0.1-0.7-0.2-0.8-0.2
			c0,0,0,0,0-0.1c0,0,0-0.1,0-0.2c0.1-0.3,0.1-0.5,0.1-0.8C104.5,34.6,104.5,34.1,104.5,33.3z"/>
		<path class="st2" d="M119.3,34.6l-0.3,0.7c-0.4,0.3-0.7,0.4-0.9,0.5c-0.3,0.1-0.6,0.2-1,0.3c-0.4,0.1-0.8,0.1-1.2,0.1
			c-0.8,0-1.5-0.2-2.2-0.5c-0.6-0.3-1.2-0.8-1.5-1.5c-0.4-0.7-0.5-1.4-0.5-2.3c0-0.7,0.1-1.3,0.3-1.9c0.2-0.6,0.4-1,0.7-1.2
			c0.2-0.2,0.4-0.4,0.8-0.7c0.4-0.3,0.7-0.5,1.1-0.6c0.5-0.2,1-0.3,1.6-0.3c0.7,0,1.3,0.2,1.8,0.5c0.5,0.3,1,0.7,1.2,1.3
			c0.3,0.5,0.4,1.1,0.4,1.8c0,0.2,0,0.4,0,0.6c-0.4,0.1-0.8,0.1-1.2,0.2c-0.7,0-1.3,0.1-2,0.1h-2.9c0,0.9,0.2,1.6,0.5,2.1
			c0.3,0.5,0.7,0.9,1.2,1.2c0.5,0.3,1,0.4,1.6,0.4c0.4,0,0.7-0.1,1.1-0.2c0.4-0.1,0.8-0.3,1.4-0.7L119.3,34.6z M113.4,30.9
			c0.2,0,0.5,0,1,0.1c0.9,0,1.5,0,1.9,0c0.8,0,1.3,0,1.6,0c0-0.1,0-0.3,0-0.3c0-1-0.2-1.7-0.6-2.1c-0.4-0.4-0.9-0.7-1.6-0.7
			c-0.7,0-1.2,0.2-1.7,0.7C113.7,29.1,113.4,29.8,113.4,30.9z"/>
		<path class="st2" d="M121.8,29.8l-0.5-0.1c0-0.1,0-0.3,0-0.6c0-0.3,0-0.5,0-0.6c0.8-0.5,1.4-0.8,1.9-1c0.4-0.1,0.8-0.2,1.3-0.2
			c0.7,0,1.3,0.1,1.7,0.4c0.5,0.3,0.8,0.6,1.1,1.1c0.2,0.3,0.2,0.8,0.2,1.4l0,1.7v2.7c0,0.3,0,0.5,0.1,0.6c0,0.1,0.1,0.2,0.2,0.2
			c0.1,0,0.2,0.1,0.4,0.1l0.6,0.1V36c-0.5,0-0.9-0.1-1.3-0.1c-0.4,0-0.8,0-1.5,0.1l0-1.6c-1.2,0.9-2,1.5-2.2,1.6
			c-0.2,0.1-0.5,0.2-0.9,0.2c-0.7,0-1.3-0.2-1.7-0.6c-0.4-0.4-0.6-0.9-0.6-1.6c0-0.4,0.1-0.8,0.2-1.1c0.1-0.3,0.3-0.6,0.5-0.8
			c0.2-0.2,0.4-0.4,0.6-0.5c0.4-0.2,0.9-0.3,1.7-0.5c0.8-0.2,1.6-0.3,2.4-0.4c0-0.6-0.1-1-0.2-1.3c-0.1-0.3-0.4-0.6-0.7-0.8
			c-0.3-0.2-0.8-0.3-1.3-0.3c-0.4,0-0.7,0-0.9,0.1c-0.3,0.1-0.4,0.2-0.5,0.2l-0.2,0.3C122,29.3,121.9,29.6,121.8,29.8z M126,31.2
			c-0.8,0.1-1.5,0.3-2,0.4s-1,0.3-1.2,0.5c-0.1,0.1-0.3,0.3-0.4,0.5c-0.2,0.3-0.2,0.6-0.2,1c0,0.4,0.1,0.8,0.4,1.1
			c0.2,0.3,0.6,0.4,1,0.4c0.4,0,0.8-0.1,1.2-0.4c0.4-0.2,0.8-0.6,1.2-1.1V31.2z"/>
		<path class="st2" d="M129.3,36v-0.5c0.7,0,1.1,0,1.1,0c0.1,0,0.2,0,0.2-0.1c0.1,0,0.1-0.1,0.1-0.2c0.1-0.1,0.1-0.4,0.1-0.7
			c0-1.6,0.1-2.5,0.1-2.5V31c0-0.5,0-1,0-1.6c0-0.4,0-0.6-0.1-0.6c0-0.1-0.1-0.1-0.2-0.2c-0.1,0-0.5,0-1.2,0V28
			c1.2-0.2,2.1-0.4,2.7-0.7c0.1-0.1,0.2-0.1,0.2-0.1c0,0,0.1,0,0.1,0c0,0,0,0.1,0,0.1c0,0,0,0.1,0,0.1c0,0.4,0,0.9-0.1,1.7
			c0.3-0.3,0.5-0.6,0.8-0.9c0.2-0.3,0.4-0.5,0.5-0.6c0.2-0.2,0.4-0.3,0.6-0.4c0.2-0.1,0.5-0.1,0.7-0.1c0.3,0,0.5,0.1,0.8,0.2
			l0.1,0.1c-0.1,0.8-0.1,1.5-0.2,2.1h-0.4c-0.1-0.3-0.3-0.5-0.5-0.6c-0.2-0.1-0.4-0.2-0.7-0.2c-0.5,0-0.9,0.2-1.2,0.6
			c-0.3,0.4-0.5,1-0.5,1.7v0.9c0,0.4,0,1.1,0,2.2c0,0.4,0,0.6,0,0.7c0,0.1,0.1,0.2,0.1,0.2c0,0,0.1,0.1,0.2,0.1
			c0.2,0.1,0.7,0.1,1.5,0.2V36c-1.1,0-2-0.1-2.7-0.1C130.8,36,130,36,129.3,36z"/>
		<path class="st2" d="M143.5,35l-0.4,0.6c-0.4,0.2-0.8,0.4-1.2,0.5c-0.4,0.1-0.9,0.2-1.4,0.2c-1.3,0-2.3-0.4-3-1.2
			c-0.8-0.8-1.1-1.8-1.1-3.2c0-0.7,0.1-1.3,0.3-1.9c0.2-0.5,0.5-0.9,0.8-1.2c0.2-0.2,0.6-0.5,1.1-0.8c0.6-0.3,1-0.5,1.2-0.6
			c0.4-0.2,0.9-0.3,1.5-0.3c0.5,0,1,0.1,1.5,0.2c0.3,0.1,0.6,0.2,0.8,0.4c-0.1,0.5-0.1,0.8-0.2,1.1c0,0.2-0.1,0.7-0.1,1.3h-0.5
			c0-0.6-0.1-1-0.1-1.1c0-0.1-0.1-0.2-0.2-0.2c-0.2-0.2-0.5-0.3-0.8-0.4c-0.3-0.1-0.7-0.2-1.1-0.2c-0.5,0-1,0.1-1.3,0.3
			c-0.4,0.2-0.7,0.5-0.9,1c-0.2,0.5-0.3,1-0.3,1.7c0,0.8,0.1,1.6,0.4,2.2c0.3,0.7,0.7,1.2,1.2,1.5c0.5,0.3,1.1,0.5,1.7,0.5
			c0.3,0,0.6,0,0.9-0.1c0.3-0.1,0.7-0.2,1.1-0.4L143.5,35z"/>
		<path class="st2" d="M143.7,36v-0.5l0.9,0c0.1,0,0.2,0,0.3-0.1c0.1,0,0.1-0.1,0.2-0.2c0.1-0.1,0.1-0.3,0.1-0.6c0-0.1,0-1,0.1-2.6
			v-4.7c0-1,0-2.1-0.1-3.1c0-0.7-0.1-1.1-0.1-1.2c0-0.1-0.1-0.1-0.1-0.1c-0.1,0-0.5-0.1-1.3-0.1v-0.5c1.4-0.2,2.3-0.4,2.9-0.6
			c0.1,0,0.1-0.1,0.2-0.1s0.1,0,0.1,0c0,0,0,0.1,0,0.1c0,0,0,0.1,0,0.2l0,0.3c0,1.1,0,2-0.1,2.8l0,1.4V29c0.1-0.1,0.3-0.3,0.7-0.6
			c0.4-0.3,0.6-0.6,0.7-0.6c0.1-0.1,0.2-0.2,0.3-0.2c0.1-0.1,0.3-0.1,0.5-0.2c0.3-0.1,0.6-0.1,0.9-0.1c0.6,0,1.1,0.1,1.6,0.4
			c0.5,0.3,0.8,0.6,1,1c0.2,0.4,0.3,1,0.3,1.8V32l0,1.3c0,0.8,0,1.2,0,1.3c0,0.3,0,0.5,0.1,0.6c0,0.1,0.1,0.1,0.1,0.2
			c0,0,0.1,0.1,0.2,0.1c0,0,0.4,0,0.9,0V36c-0.7,0-1.2,0-1.5,0c-0.3,0-0.8,0-1.6,0c0.1-0.9,0.1-1.8,0.1-2.6v-2.3
			c0-0.7-0.1-1.2-0.2-1.5c-0.1-0.3-0.3-0.6-0.6-0.8c-0.3-0.2-0.7-0.4-1.3-0.4c-0.3,0-0.6,0-0.9,0.1c-0.3,0.1-0.5,0.2-0.7,0.4
			c-0.2,0.2-0.4,0.4-0.6,0.6c-0.1,0.1-0.1,0.2-0.1,0.4c0,0.2,0,0.5,0,0.9V32c0,1.6,0,2.4,0.1,2.6c0,0.3,0,0.5,0.1,0.7
			c0,0.1,0.1,0.1,0.1,0.2c0,0,0.1,0.1,0.2,0.1c0,0,0.4,0,1,0V36c-1.1,0-1.8-0.1-2.2-0.1C145.7,36,144.9,36,143.7,36z"/>
	</g>
</g>
</svg>
